<?xml version="1.0" encoding="UTF-8"?>
<svg width="64px" height="64px" viewBox="0 0 64 64" version="1.1" xmlns="http://www.w3.org/2000/svg" xmlns:xlink="http://www.w3.org/1999/xlink">
    <!-- Generator: Sketch 47 (45396) - http://www.bohemiancoding.com/sketch -->
    <title>Group 17</title>
    <desc>Created with Sketch.</desc>
    <defs>
        <polygon id="path-1" points="30.6252 0.079 0.00172770828 0.079 0.00172770828 25.9992943 30.6252 25.9992943 30.6252 0.079"></polygon>
        <polygon id="path-3" points="0 0.7988 0 1.7988 19.2006 1.7988 19.2006 0.7988 0 0.7988"></polygon>
        <polygon id="path-5" points="3.639 1.7988 3.639 0.7988 0.8411 0.7988 0.8411 1.7988 3.639 1.7988"></polygon>
    </defs>
    <g id="Page-1" stroke="none" stroke-width="1" fill="none" fill-rule="evenodd">
        <g id="GXX_LandingPage#1" transform="translate(-531.000000, -1204.000000)">
            <g id="Group-17" transform="translate(531.000000, 1204.000000)">
                <circle id="Oval" fill="#F4F4F4" cx="32" cy="32" r="32"></circle>
                <g id="Page-1" transform="translate(17.000000, 19.000000)">
                    <g id="Group-3" transform="translate(0.000000, 0.921400)">
                        <mask id="mask-2" fill="white">
                            <use xlink:href="#path-1"></use>
                        </mask>
                        <g id="Clip-2"></g>
                        <path d="M30.6122,7.5801 L15.7352,25.8191 C15.7152,25.8461 15.6902,25.8701 15.6632,25.8921 C15.4582,26.0591 15.1562,26.0271 14.9902,25.8231 L0.1082,7.5801 C-0.0238,7.4181 -0.0368,7.1801 0.0902,7.0011 L4.8692,0.3111 C4.9542,0.1721 5.1062,0.0781 5.2812,0.0781 L25.4412,0.0781 L25.4412,0.0801 C25.5912,0.0811 25.7382,0.1501 25.8322,0.2811 L30.6252,6.9921 L30.6122,7.5801 Z M15.3612,24.7651 L29.6392,7.2601 L25.1962,1.0391 L5.5262,1.0391 L1.0822,7.2601 L15.3612,24.7651 Z" id="Fill-1" fill="#1FD582" mask="url(#mask-2)"></path>
                    </g>
                    <g id="Group-6" transform="translate(0.000000, 6.921400)">
                        <mask id="mask-4" fill="white">
                            <use xlink:href="#path-3"></use>
                        </mask>
                        <g id="Clip-5"></g>
                        <path d="M18.7206,0.7988 C18.9856,0.7988 19.2006,1.0138 19.2006,1.2778 C19.2006,1.5428 18.9856,1.7588 18.7206,1.7588 L0.4806,1.7588 C0.2156,1.7588 -0.0004,1.5428 -0.0004,1.2778 C-0.0004,1.0138 0.2156,0.7988 0.4806,0.7988 L18.7206,0.7988 Z" id="Fill-4" fill="#1FD582" mask="url(#mask-4)"></path>
                    </g>
                    <g id="Group-9" transform="translate(27.000000, 6.921400)">
                        <mask id="mask-6" fill="white">
                            <use xlink:href="#path-5"></use>
                        </mask>
                        <g id="Clip-8"></g>
                        <path d="M3.1591,0.7988 C3.4241,0.7988 3.6391,1.0138 3.6391,1.2778 C3.6391,1.5428 3.4241,1.7588 3.1591,1.7588 L1.3211,1.7588 C1.0561,1.7588 0.8411,1.5428 0.8411,1.2778 C0.8411,1.0138 1.0561,0.7988 1.3211,0.7988 L3.1591,0.7988 Z" id="Fill-7" fill="#1FD582" mask="url(#mask-6)"></path>
                    </g>
                    <path d="M4.8369,1.6577 C4.7379,1.4137 4.8579,1.1347 5.1029,1.0357 C5.3479,0.9377 5.6279,1.0567 5.7259,1.3027 L15.8059,26.2637 C15.9039,26.5097 15.7839,26.7887 15.5389,26.8867 C15.2939,26.9847 15.0149,26.8657 14.9169,26.6207 L4.8369,1.6577 Z" id="Fill-10" fill="#1FD582"></path>
                    <g id="Group-14" transform="translate(14.000000, 11.921400)" fill="#1FD582">
                        <path d="M6.538,0.4219 C6.637,0.1769 6.916,0.0569 7.161,0.1549 C7.405,0.2529 7.525,0.5319 7.427,0.7769 L1.806,14.6989 C1.708,14.9439 1.429,15.0639 1.184,14.9659 C0.938,14.8669 0.818,14.5879 0.917,14.3429 L6.538,0.4219 Z" id="Fill-12"></path>
                    </g>
                    <path d="M24.996,1.3023 C25.095,1.0573 25.374,0.9383 25.619,1.0353 C25.864,1.1343 25.983,1.4133 25.886,1.6573 L25.11,3.5783 C25.012,3.8233 24.732,3.9443 24.487,3.8453 C24.242,3.7473 24.123,3.4683 24.221,3.2233 L24.996,1.3023 Z" id="Fill-15" fill="#1FD582"></path>
                    <path d="M8.4863,8.5503 C8.2933,8.7303 7.9903,8.7193 7.8103,8.5263 C7.6313,8.3323 7.6413,8.0293 7.8353,7.8493 L15.0353,1.1293 C15.2283,0.9493 15.5323,0.9603 15.7123,1.1543 C15.8913,1.3473 15.8813,1.6513 15.6873,1.8303 L8.4863,8.5503 Z" id="Fill-17" fill="#1FD582"></path>
                    <path d="M20.4853,5.6079 C20.6783,5.7879 20.6893,6.0909 20.5083,6.2849 C20.3293,6.4779 20.0263,6.4889 19.8333,6.3089 L15.0353,1.8309 C14.8413,1.6509 14.8313,1.3469 15.0103,1.1539 C15.1903,0.9609 15.4943,0.9499 15.6873,1.1289 L20.4853,5.6079 Z" id="Fill-19" fill="#1FD582"></path>
                    <path d="M24.0595,7.4507 L23.5225,6.3847 L22.9855,7.4507 C22.9405,7.5387 22.8685,7.6147 22.7735,7.6627 L21.7055,8.1997 L22.7735,8.7377 C22.8615,8.7827 22.9375,8.8537 22.9855,8.9497 L23.5225,10.0157 L24.0595,8.9497 C24.1045,8.8607 24.1755,8.7847 24.2715,8.7377 L25.3385,8.1997 L24.2715,7.6627 C24.1825,7.6177 24.1075,7.5457 24.0595,7.4507 M23.9495,5.1047 L24.8435,6.8787 L26.6185,7.7727 C26.8535,7.8907 26.9485,8.1797 26.8305,8.4157 C26.7825,8.5107 26.7055,8.5827 26.6185,8.6277 L24.8435,9.5207 L23.9495,11.2957 C23.8305,11.5317 23.5415,11.6267 23.3065,11.5077 C23.2105,11.4607 23.1395,11.3847 23.0945,11.2957 L22.2015,9.5207 L20.4265,8.6277 C20.1905,8.5097 20.0955,8.2207 20.2145,7.9847 C20.2615,7.8887 20.3375,7.8167 20.4265,7.7727 L22.2015,6.8787 L23.0945,5.1047 C23.2125,4.8687 23.5015,4.7737 23.7375,4.8917 C23.8325,4.9397 23.9045,5.0157 23.9495,5.1047" id="Fill-21" fill="#1FD582"></path>
                </g>
            </g>
        </g>
    </g>
</svg>