<?xml version="1.0" encoding="UTF-8"?>
<svg width="7px" height="11px" viewBox="0 0 7 11" version="1.1" xmlns="http://www.w3.org/2000/svg" xmlns:xlink="http://www.w3.org/1999/xlink">
    <!-- Generator: Sketch 47 (45396) - http://www.bohemiancoding.com/sketch -->
    <title>Fill 5</title>
    <desc>Created with Sketch.</desc>
    <defs></defs>
    <g id="Page-1" stroke="none" stroke-width="1" fill="none" fill-rule="evenodd">
        <g id="GXX_LandingPage#1" transform="translate(-1041.000000, -289.000000)" fill="#1FD582">
            <g id="Group-16" transform="translate(925.000000, 120.000000)">
                <path d="M116.4407,176.5596 C116.4407,176.2946 116.6567,176.0796 116.9207,176.0796 C117.1857,176.0796 117.4017,176.2946 117.4017,176.5596 C117.4017,177.1116 117.6267,177.6126 117.9867,177.9736 C118.3487,178.3346 118.8487,178.5596 119.4007,178.5596 C119.9527,178.5596 120.4537,178.3346 120.8157,177.9736 C121.1757,177.6126 121.4007,177.1116 121.4007,176.5596 C121.4007,176.0066 121.1767,175.5066 120.8177,175.1456 L120.8157,175.1436 C120.4537,174.7836 119.9527,174.5596 119.4007,174.5596 C118.7567,174.5596 118.1717,174.2976 117.7477,173.8726 L117.7467,173.8736 C117.3237,173.4516 117.0607,172.8666 117.0607,172.2196 C117.0607,171.5736 117.3237,170.9876 117.7467,170.5646 L117.7797,170.5356 C118.2007,170.1286 118.7727,169.8786 119.4007,169.8786 C120.0467,169.8786 120.6317,170.1416 121.0557,170.5646 C121.4787,170.9876 121.7417,171.5736 121.7417,172.2196 C121.7417,172.4846 121.5257,172.7006 121.2607,172.7006 C120.9967,172.7006 120.7807,172.4846 120.7807,172.2196 C120.7807,171.8386 120.6267,171.4936 120.3767,171.2446 C120.1277,170.9946 119.7817,170.8396 119.4007,170.8396 C119.0317,170.8396 118.6957,170.9836 118.4507,171.2176 L118.4257,171.2446 C118.1757,171.4936 118.0217,171.8386 118.0217,172.2196 C118.0217,172.6006 118.1757,172.9466 118.4257,173.1956 L118.4247,173.1966 L118.4257,173.1976 C118.6727,173.4466 119.0187,173.5996 119.4007,173.5996 C120.2157,173.5996 120.9577,173.9316 121.4927,174.4666 L121.4947,174.4686 C122.0287,175.0036 122.3617,175.7446 122.3617,176.5596 C122.3617,177.3766 122.0287,178.1186 121.4947,178.6526 C120.9597,179.1876 120.2177,179.5196 119.4007,179.5196 C118.5837,179.5196 117.8427,179.1876 117.3077,178.6526 C116.7737,178.1186 116.4407,177.3766 116.4407,176.5596" id="Fill-5"></path>
            </g>
        </g>
    </g>
</svg>