<?xml version="1.0" encoding="UTF-8"?>
<svg width="11px" height="9px" viewBox="0 0 11 9" version="1.1" xmlns="http://www.w3.org/2000/svg" xmlns:xlink="http://www.w3.org/1999/xlink">
    <!-- Generator: Sketch 47 (45396) - http://www.bohemiancoding.com/sketch -->
    <title>Fill 9</title>
    <desc>Created with Sketch.</desc>
    <defs></defs>
    <g id="Page-1" stroke="none" stroke-width="1" fill="none" fill-rule="evenodd">
        <g id="GXX_LandingPage#1" transform="translate(-1039.000000, -275.000000)" fill="#1FD582">
            <g id="Group-16" transform="translate(925.000000, 120.000000)">
                <path d="M121.1926,163.2559 C121.0596,163.4849 120.7666,163.5629 120.5386,163.4309 C120.3096,163.2979 120.2316,163.0049 120.3636,162.7769 L123.7026,156.9929 C123.1186,156.6939 122.4966,156.4539 121.8476,156.2799 C121.0706,156.0709 120.2496,155.9599 119.4006,155.9599 C118.5526,155.9599 117.7316,156.0709 116.9526,156.2799 C116.3046,156.4539 115.6836,156.6939 115.0996,156.9929 L118.4386,162.7769 C118.5706,163.0049 118.4926,163.2979 118.2636,163.4309 C118.0356,163.5629 117.7426,163.4849 117.6096,163.2559 L114.0256,157.0479 C113.8936,156.8189 113.9716,156.5259 114.2006,156.3939 C114.9776,155.9439 115.8196,155.5899 116.7066,155.3539 C117.5666,155.1229 118.4716,154.9999 119.4006,154.9999 C120.3296,154.9999 121.2346,155.1229 122.0946,155.3539 C122.9776,155.5889 123.8156,155.9409 124.5906,156.3879 L124.6016,156.3939 C124.8306,156.5259 124.9086,156.8189 124.7766,157.0479 L121.1926,163.2559 Z" id="Fill-9"></path>
            </g>
        </g>
    </g>
</svg>