<?xml version="1.0" encoding="UTF-8"?>
<svg width="17px" height="20px" viewBox="0 0 17 20" version="1.1" xmlns="http://www.w3.org/2000/svg" xmlns:xlink="http://www.w3.org/1999/xlink">
    <!-- Generator: Sketch 47 (45396) - http://www.bohemiancoding.com/sketch -->
    <title>Fill 3</title>
    <desc>Created with Sketch.</desc>
    <defs></defs>
    <g id="Page-1" stroke="none" stroke-width="1" fill="none" fill-rule="evenodd">
        <g id="GXX_LandingPage#1" transform="translate(-1036.000000, -284.000000)" fill="#1FD582">
            <g id="Group-16" transform="translate(925.000000, 120.000000)">
                <path d="M127.3215,180.2793 C127.3215,180.5443 127.1055,180.7593 126.8415,180.7593 C126.5765,180.7593 126.3605,180.5443 126.3605,180.2793 L126.3605,172.8403 C126.3605,170.9173 125.5825,169.1753 124.3245,167.9193 L124.3235,167.9183 L124.3225,167.9193 C123.0625,166.6603 121.3225,165.8813 119.4005,165.8813 C117.4795,165.8813 115.7395,166.6603 114.4795,167.9193 L114.4565,167.9413 C113.2115,169.1953 112.4415,170.9273 112.4415,172.8403 L112.4415,182.2793 L126.8415,182.2793 C127.1055,182.2793 127.3215,182.4943 127.3215,182.7583 C127.3215,183.0233 127.1055,183.2393 126.8415,183.2393 L111.9735,183.2393 L111.9615,183.2393 C111.6965,183.2393 111.4805,183.0233 111.4805,182.7583 L111.4805,172.8403 C111.4805,170.6693 112.3565,168.7003 113.7735,167.2683 L113.8005,167.2393 C115.2335,165.8073 117.2145,164.9203 119.4005,164.9203 C121.5885,164.9203 123.5685,165.8073 125.0015,167.2393 L125.0005,167.2413 C126.4335,168.6753 127.3215,170.6553 127.3215,172.8403 L127.3215,180.2793 Z" id="Fill-3"></path>
            </g>
        </g>
    </g>
</svg>