<?xml version="1.0" encoding="UTF-8"?>
<svg width="64px" height="64px" viewBox="0 0 64 64" version="1.1" xmlns="http://www.w3.org/2000/svg" xmlns:xlink="http://www.w3.org/1999/xlink">
    <!-- Generator: Sketch 47 (45396) - http://www.bohemiancoding.com/sketch -->
    <title>Group 23</title>
    <desc>Created with Sketch.</desc>
    <defs>
        <polygon id="path-1" points="0.199247435 6 4.74391198 6 4.74391198 0.974900498 0.199247435 0.974900498"></polygon>
    </defs>
    <g id="Page-1" stroke="none" stroke-width="1" fill="none" fill-rule="evenodd">
        <g id="GXX_LandingPage#1" transform="translate(-531.000000, -1474.000000)">
            <g id="Group-23" transform="translate(531.000000, 1474.000000)">
                <circle id="Oval-Copy-2" fill="#F4F4F4" cx="32" cy="32" r="32"></circle>
                <g id="Page-1" transform="translate(17.000000, 20.000000)">
                    <path d="M12.6427,9.5698 C12.3847,9.6228 12.1307,9.4548 12.0787,9.1968 C12.0257,8.9378 12.1927,8.6838 12.4517,8.6318 C12.8727,8.5458 13.3037,8.4788 13.7407,8.4358 C14.1797,8.3918 14.6177,8.3688 15.0457,8.3688 C15.4747,8.3688 15.9117,8.3918 16.3507,8.4358 C16.7877,8.4788 17.2187,8.5458 17.6407,8.6318 C17.8987,8.6838 18.0657,8.9378 18.0137,9.1968 C17.9607,9.4548 17.7067,9.6228 17.4487,9.5698 C17.0587,9.4898 16.6597,9.4278 16.2567,9.3878 C15.8697,9.3488 15.4647,9.3288 15.0457,9.3288 C14.6257,9.3288 14.2217,9.3488 13.8337,9.3878 C13.4327,9.4278 13.0327,9.4898 12.6427,9.5698" id="Fill-1" fill="#1FD582"></path>
                    <path d="M1.5514,12.5707 C1.6414,12.8187 1.5124,13.0927 1.2644,13.1827 C1.0164,13.2737 0.7414,13.1447 0.6514,12.8967 L0.3404,12.0387 L0.0294,11.1807 C-0.0616,10.9327 0.0674,10.6587 0.3154,10.5677 L0.3364,10.5607 L2.0564,10.0227 C2.0874,9.9007 2.1204,9.7797 2.1564,9.6617 L2.1574,9.6607 L2.1564,9.6607 C2.2194,9.4567 2.2974,9.2487 2.3844,9.0397 C2.5544,8.6367 2.7604,8.2587 2.9964,7.9097 C3.2384,7.5497 3.5134,7.2167 3.8144,6.9157 C4.1154,6.6147 4.4484,6.3407 4.8084,6.0967 C5.1574,5.8627 5.5364,5.6567 5.9394,5.4867 C6.1824,5.3837 6.4634,5.4987 6.5654,5.7417 C6.6674,5.9847 6.5524,6.2647 6.3094,6.3677 C5.9754,6.5087 5.6514,6.6857 5.3444,6.8917 C5.0414,7.0967 4.7554,7.3337 4.4934,7.5937 C4.2314,7.8567 3.9954,8.1417 3.7904,8.4457 C3.5844,8.7527 3.4074,9.0767 3.2654,9.4107 C3.1964,9.5757 3.1314,9.7557 3.0724,9.9447 L3.0714,9.9447 C3.0184,10.1177 2.9724,10.2947 2.9354,10.4727 C2.9074,10.6477 2.7844,10.7997 2.6044,10.8557 L1.1004,11.3257 L1.2394,11.7127 L1.5514,12.5707 Z" id="Fill-3" fill="#1FD582"></path>
                    <path d="M4.3912,8.8696 C4.6242,8.6376 4.9452,8.4926 5.2992,8.4926 C5.6342,8.4926 5.9422,8.6226 6.1712,8.8356 L6.2082,8.8696 C6.4402,9.1016 6.5842,9.4246 6.5842,9.7786 C6.5842,10.1306 6.4402,10.4516 6.2072,10.6846 L6.2052,10.6876 C5.9722,10.9206 5.6502,11.0646 5.2992,11.0646 C4.9452,11.0646 4.6252,10.9206 4.3912,10.6876 L4.3892,10.6846 C4.1562,10.4516 4.0122,10.1306 4.0122,9.7786 C4.0122,9.4246 4.1562,9.1016 4.3892,8.8696 L4.3902,8.8706 L4.3912,8.8696 Z M5.2992,9.4536 C5.2082,9.4536 5.1252,9.4896 5.0672,9.5476 L5.0682,9.5486 C5.0092,9.6066 4.9732,9.6886 4.9732,9.7786 C4.9732,9.8696 5.0082,9.9516 5.0662,10.0086 L5.0682,10.0116 C5.1252,10.0686 5.2082,10.1036 5.2992,10.1036 C5.3892,10.1036 5.4712,10.0686 5.5282,10.0116 L5.5312,10.0086 C5.5882,9.9516 5.6242,9.8696 5.6242,9.7786 C5.6242,9.6886 5.5872,9.6066 5.5292,9.5486 L5.5142,9.5316 C5.4562,9.4826 5.3812,9.4536 5.2992,9.4536 L5.2992,9.4536 Z" id="Fill-5" fill="#1FD582"></path>
                    <path d="M6.569,5.7485 C6.667,5.9935 6.548,6.2725 6.302,6.3715 C6.058,6.4695 5.778,6.3505 5.68,6.1045 L5.189,4.8865 C5.09,4.6425 5.21,4.3625 5.455,4.2645 C5.7,4.1665 5.979,4.2855 6.077,4.5305 L6.569,5.7485 Z" id="Fill-7" fill="#1FD582"></path>
                    <path d="M22.858,18.7065 C22.786,18.4515 22.933,18.1865 23.188,18.1145 C23.442,18.0435 23.708,18.1895 23.779,18.4445 L24.63,21.4265 C24.691,21.6405 24.596,21.8625 24.412,21.9705 L22.574,23.1955 C22.356,23.3405 22.06,23.2805 21.913,23.0645 L20.221,20.6855 C20.068,20.4715 20.119,20.1725 20.334,20.0185 C20.549,19.8655 20.848,19.9165 21.002,20.1315 L22.43,22.1405 L23.613,21.3525 L22.858,18.7065 Z" id="Fill-9" fill="#1FD582"></path>
                    <path d="M25.7545,10.8832 C25.7545,11.1482 25.5385,11.3622 25.2745,11.3622 C25.0095,11.3622 24.7945,11.1482 24.7945,10.8832 C24.7945,10.0692 25.1255,9.3282 25.6605,8.7922 L25.6615,8.7912 L25.6635,8.7892 L25.6645,8.7882 C26.2005,8.2532 26.9405,7.9232 27.7535,7.9232 C28.0185,7.9232 28.2335,8.1382 28.2335,8.4032 C28.2335,8.6682 28.0185,8.8832 27.7535,8.8832 C27.2005,8.8832 26.6995,9.1062 26.3395,9.4672 L26.3375,9.4692 C25.9775,9.8282 25.7545,10.3292 25.7545,10.8832" id="Fill-11" fill="#1FD582"></path>
                    <path d="M30.7135,10.8832 C30.7135,11.1482 30.4985,11.3632 30.2335,11.3632 C29.9685,11.3632 29.7535,11.1482 29.7535,10.8832 C29.7535,10.3312 29.5295,9.8302 29.1705,9.4692 L29.1685,9.4672 C28.8065,9.1072 28.3055,8.8832 27.7535,8.8832 C27.4885,8.8832 27.2735,8.6682 27.2735,8.4032 C27.2735,8.1382 27.4885,7.9232 27.7535,7.9232 C28.5685,7.9232 29.3095,8.2552 29.8445,8.7892 L29.8465,8.7922 C30.3815,9.3272 30.7135,10.0682 30.7135,10.8832" id="Fill-13" fill="#1FD582"></path>
                    <path d="M12.8634,21.8178 C12.6224,21.7568 12.4654,21.5208 12.5084,21.2718 L12.8634,21.8178 Z M20.4264,19.9658 C20.6654,19.8538 20.9514,19.9578 21.0634,20.1958 C21.1764,20.4338 21.0734,20.7208 20.8344,20.8328 C20.3114,21.0808 19.7594,21.2918 19.1944,21.4638 C18.6234,21.6378 18.0374,21.7728 17.4524,21.8648 C17.2564,21.8958 17.0774,21.9218 16.9254,21.9398 C16.7514,21.9608 16.5714,21.9778 16.3894,21.9928 C16.2284,22.0048 16.0444,22.0158 15.8434,22.0238 C15.6324,22.0328 15.4494,22.0368 15.2954,22.0368 C14.8414,22.0368 14.3744,22.0118 13.9014,21.9648 C13.5574,21.9298 13.2224,21.8828 12.8984,21.8258 L12.8634,21.8178 C12.5404,21.7588 12.2204,21.6888 11.9094,21.6088 C11.6544,21.5428 11.5004,21.2818 11.5664,21.0258 C11.6334,20.7698 11.8944,20.6168 12.1494,20.6828 C12.4444,20.7588 12.7404,20.8248 13.0334,20.8778 L13.0634,20.8808 C13.3804,20.9378 13.6914,20.9818 13.9954,21.0118 C14.4164,21.0548 14.8514,21.0768 15.2954,21.0768 C15.4964,21.0768 15.6684,21.0738 15.8064,21.0678 L15.8084,21.0678 C15.9594,21.0628 16.1284,21.0518 16.3144,21.0378 C16.4784,21.0248 16.6464,21.0068 16.8124,20.9878 C17.0004,20.9648 17.1644,20.9418 17.3024,20.9208 C17.8444,20.8358 18.3874,20.7108 18.9164,20.5488 C19.4304,20.3918 19.9394,20.1968 20.4264,19.9658 L20.4264,19.9658 Z M25.0984,12.7338 C25.0664,12.4718 25.2514,12.2318 25.5134,12.1998 C25.7754,12.1668 26.0154,12.3518 26.0484,12.6138 C26.0674,12.7618 26.0824,12.9118 26.0914,13.0548 C26.1014,13.2138 26.1074,13.3628 26.1074,13.4988 C26.1074,13.7488 26.0924,14.0028 26.0634,14.2588 C26.0354,14.5088 25.9914,14.7608 25.9354,15.0128 C25.8374,15.4458 25.6994,15.8628 25.5304,16.2568 C25.3574,16.6608 25.1404,17.0548 24.8924,17.4338 C24.7474,17.6538 24.4504,17.7148 24.2304,17.5698 C24.0104,17.4248 23.9494,17.1288 24.0934,16.9088 C24.3054,16.5868 24.4934,16.2428 24.6494,15.8788 C24.8004,15.5288 24.9204,15.1678 25.0024,14.8028 C25.0494,14.5948 25.0864,14.3778 25.1114,14.1538 C25.1344,13.9438 25.1464,13.7248 25.1464,13.4988 C25.1464,13.3578 25.1424,13.2288 25.1354,13.1158 L25.1354,13.1138 C25.1274,12.9838 25.1144,12.8558 25.0984,12.7338 L25.0984,12.7338 Z M22.2764,6.9758 C22.3914,7.0658 22.4554,7.1998 22.4604,7.3378 L22.2764,6.9758 Z M19.6914,6.7138 C19.4454,6.6198 19.3224,6.3408 19.4174,6.0958 C19.5124,5.8498 19.7904,5.7268 20.0364,5.8218 C20.1774,5.8768 20.3094,5.9298 20.4294,5.9808 C20.5454,6.0298 20.6754,6.0888 20.8124,6.1528 C20.9394,6.2128 21.0644,6.2738 21.1844,6.3358 C21.3064,6.3978 21.4284,6.4638 21.5484,6.5308 C21.6604,6.5938 21.7794,6.6638 21.9014,6.7378 L21.9034,6.7388 L21.9044,6.7378 C22.0324,6.8158 22.1494,6.8898 22.2474,6.9558 L22.2764,6.9758 C22.3684,7.0378 22.4684,7.1068 22.5724,7.1818 L22.5734,7.1798 C22.6614,7.2428 22.7684,7.3238 22.8954,7.4218 C23.0204,7.5208 23.1414,7.6198 23.2564,7.7168 L23.2654,7.7258 C23.3704,7.8168 23.4804,7.9178 23.5944,8.0248 L23.5954,8.0238 C23.7004,8.1228 23.8084,8.2298 23.9174,8.3418 L23.9444,8.3738 C24.0494,8.4828 24.1424,8.5858 24.2234,8.6788 C24.3964,8.8798 24.3744,9.1818 24.1754,9.3538 C23.9754,9.5268 23.6734,9.5048 23.5004,9.3048 C23.4104,9.2018 23.3264,9.1078 23.2494,9.0258 L23.2284,9.0058 C23.1394,8.9148 23.0434,8.8178 22.9394,8.7208 L22.9404,8.7188 L22.9394,8.7188 C22.8484,8.6328 22.7464,8.5418 22.6364,8.4468 L22.6334,8.4438 C22.5244,8.3508 22.4154,8.2608 22.3064,8.1758 C22.2334,8.1198 22.1344,8.0468 22.0144,7.9608 L22.0154,7.9588 L22.0144,7.9578 C21.9344,7.9008 21.8444,7.8388 21.7454,7.7728 L21.7144,7.7538 C21.5994,7.6758 21.4954,7.6098 21.4054,7.5548 L21.4054,7.5538 C21.3074,7.4948 21.1994,7.4308 21.0834,7.3668 C20.9744,7.3058 20.8624,7.2448 20.7484,7.1868 C20.6344,7.1288 20.5204,7.0718 20.4074,7.0188 C20.3024,6.9698 20.1854,6.9178 20.0544,6.8618 C19.9254,6.8068 19.8044,6.7578 19.6914,6.7138 L19.6914,6.7138 Z" id="Fill-15" fill="#1FD582"></path>
                    <path d="M5.6329,5.1889 C5.3679,5.1889 5.1529,4.9729 5.1529,4.7089 C5.1529,4.4439 5.3679,4.2289 5.6329,4.2289 C5.8499,4.2289 6.0769,4.2409 6.3099,4.2639 C6.5359,4.2869 6.7599,4.3219 6.9779,4.3659 C7.1939,4.4099 7.4059,4.4649 7.6119,4.5289 C7.8179,4.5919 8.0259,4.6689 8.2319,4.7549 L8.2329,4.7559 L8.2339,4.7549 C8.4369,4.8409 8.6319,4.9349 8.8139,5.0339 L8.8479,5.0539 C9.0249,5.1519 9.1979,5.2569 9.3659,5.3719 L9.3669,5.3709 C9.5429,5.4879 9.7159,5.6179 9.8819,5.7549 C10.0509,5.8949 10.2099,6.0399 10.3559,6.1849 C10.4959,6.3259 10.6409,6.4859 10.7859,6.6619 C10.9259,6.8329 11.0559,7.0039 11.1709,7.1729 C11.3189,7.3929 11.2599,7.6909 11.0409,7.8389 C10.8219,7.9869 10.5239,7.9289 10.3759,7.7099 C10.2679,7.5509 10.1579,7.4039 10.0479,7.2699 C9.9419,7.1399 9.8169,7.0029 9.6769,6.8639 C9.5419,6.7289 9.4059,6.6049 9.2699,6.4929 C9.1319,6.3779 8.9839,6.2679 8.8299,6.1659 L8.8309,6.1639 L8.8299,6.1639 C8.6889,6.0679 8.5409,5.9769 8.3879,5.8929 L8.3569,5.8769 C8.1899,5.7869 8.0219,5.7059 7.8589,5.6359 L7.8589,5.6349 C7.6909,5.5649 7.5139,5.5009 7.3309,5.4439 C7.1529,5.3879 6.9699,5.3399 6.7869,5.3029 C6.5999,5.2649 6.4079,5.2359 6.2159,5.2159 C6.0349,5.1989 5.8399,5.1889 5.6329,5.1889" id="Fill-17" fill="#1FD582"></path>
                    <path d="M17.5763,1.0483 C18.2243,1.6963 18.6253,2.5933 18.6253,3.5793 C18.6253,4.5643 18.2253,5.4583 17.5773,6.1073 L17.5763,6.1083 L17.5753,6.1103 L17.5743,6.1103 C16.9263,6.7583 16.0313,7.1593 15.0463,7.1593 C14.0573,7.1593 13.1613,6.7583 12.5143,6.1103 C11.8683,5.4633 11.4663,4.5683 11.4663,3.5793 C11.4663,2.5933 11.8673,1.6953 12.5153,1.0473 C13.1613,0.4023 14.0553,0.0003 15.0463,0.0003 C16.0343,0.0003 16.9303,0.4023 17.5763,1.0483 M17.6653,3.5793 C17.6653,2.8583 17.3713,2.2013 16.8973,1.7273 C16.4243,1.2543 15.7693,0.9603 15.0463,0.9603 C14.3213,0.9603 13.6663,1.2543 13.1943,1.7273 C12.7203,2.2003 12.4263,2.8583 12.4263,3.5793 C12.4263,4.3033 12.7203,4.9583 13.1933,5.4313 C13.6673,5.9053 14.3223,6.1983 15.0463,6.1983 C15.7703,6.1983 16.4253,5.9063 16.8973,5.4343 L16.8993,5.4313 C17.3723,4.9593 17.6653,4.3043 17.6653,3.5793" id="Fill-19" fill="#1FD582"></path>
                    <path d="M5.4147,16.8618 C5.2897,16.6298 5.3767,16.3388 5.6097,16.2138 C5.8417,16.0888 6.1337,16.1758 6.2587,16.4088 C6.4637,16.7878 6.6817,17.1278 6.9317,17.4468 C7.1817,17.7658 7.4677,18.0668 7.8107,18.3688 C8.0097,18.5428 8.0307,18.8448 7.8557,19.0438 C7.6827,19.2418 7.3797,19.2618 7.1807,19.0888 C6.7867,18.7418 6.4607,18.3988 6.1777,18.0388 C5.8937,17.6768 5.6477,17.2928 5.4147,16.8618" id="Fill-21" fill="#1FD582"></path>
                    <path d="M1.7242,14.9282 C1.4592,14.9282 1.2442,14.7132 1.2442,14.4482 C1.2442,14.1832 1.4592,13.9682 1.7242,13.9682 C1.7972,13.9682 1.8902,13.9712 2.0012,13.9772 L2.0192,13.9782 C2.1092,13.9832 2.1952,13.9902 2.2782,13.9982 C2.3882,14.0092 2.4802,14.0212 2.5522,14.0322 C2.6242,14.0422 2.7132,14.0592 2.8192,14.0802 C2.8992,14.0962 2.9892,14.1172 3.0812,14.1412 L3.0842,14.1422 L3.0842,14.1412 C3.1762,14.1652 3.2652,14.1902 3.3412,14.2142 C3.4222,14.2392 3.5072,14.2682 3.5942,14.2992 L3.5962,14.3002 L3.5962,14.2992 C3.6712,14.3272 3.7512,14.3602 3.8392,14.3972 L3.8392,14.3962 C3.9152,14.4282 3.9962,14.4642 4.0822,14.5062 L4.1092,14.5202 C4.1842,14.5572 4.2542,14.5922 4.3142,14.6252 L4.3182,14.6272 L4.3182,14.6262 C4.3902,14.6662 4.4652,14.7092 4.5402,14.7542 L4.5692,14.7732 C4.6432,14.8182 4.7072,14.8602 4.7632,14.8982 L4.7772,14.9072 L4.9702,15.0442 L4.9802,15.0522 L4.9812,15.0512 C5.0342,15.0912 5.1002,15.1432 5.1822,15.2112 C5.2592,15.2752 5.3292,15.3342 5.3822,15.3832 C5.4402,15.4362 5.5032,15.4962 5.5692,15.5632 L5.5702,15.5612 C5.6082,15.6002 5.6662,15.6612 5.7492,15.7532 L5.7502,15.7522 C5.7982,15.8052 5.8562,15.8712 5.9192,15.9492 C5.9762,16.0182 6.0312,16.0882 6.0822,16.1562 L6.0902,16.1652 L6.2262,16.3582 C6.3792,16.5732 6.3282,16.8712 6.1132,17.0252 C5.8982,17.1782 5.5992,17.1272 5.4462,16.9122 L5.3102,16.7192 L5.1822,16.5562 L5.0422,16.3982 L5.0432,16.3972 L5.0422,16.3952 L4.8912,16.2402 L4.8922,16.2402 L4.8912,16.2392 C4.8472,16.1942 4.7932,16.1432 4.7372,16.0912 C4.6732,16.0322 4.6192,15.9862 4.5752,15.9492 L4.4042,15.8172 L4.4042,15.8172 L4.2242,15.6882 L4.0732,15.5902 L4.0462,15.5742 L3.8572,15.4662 L3.6892,15.3782 L3.6662,15.3682 C3.6072,15.3402 3.5402,15.3102 3.4692,15.2802 L3.4692,15.2802 L3.4662,15.2792 C3.4092,15.2542 3.3402,15.2272 3.2662,15.1992 L3.2662,15.1992 L3.0572,15.1282 C2.9792,15.1042 2.9082,15.0842 2.8442,15.0682 L2.8442,15.0672 C2.7792,15.0502 2.7072,15.0332 2.6272,15.0182 L2.4092,14.9802 C2.3172,14.9662 2.2392,14.9552 2.1842,14.9502 C2.1112,14.9432 2.0372,14.9372 1.9702,14.9332 L1.9532,14.9332 C1.8972,14.9302 1.8202,14.9282 1.7242,14.9282" id="Fill-23" fill="#1FD582"></path>
                    <g id="Group-27" transform="translate(6.000000, 17.274800)">
                        <mask id="mask-2" fill="white">
                            <use xlink:href="#path-1"></use>
                        </mask>
                        <g id="Clip-26"></g>
                        <path d="M3.8849,2.9727 C4.0449,2.7637 4.3459,2.7227 4.5559,2.8837 C4.7659,3.0437 4.8059,3.3447 4.6459,3.5547 L2.9169,5.8127 C2.7589,6.0197 2.4639,6.0617 2.2539,5.9077 L0.4109,4.6787 C0.2289,4.5577 0.1579,4.3307 0.2229,4.1327 L1.0369,1.3207 C1.1099,1.0667 1.3759,0.9207 1.6299,0.9937 C1.8829,1.0677 2.0289,1.3327 1.9549,1.5867 L1.2339,4.0777 L2.4289,4.8747 L3.8849,2.9727 Z" id="Fill-25" fill="#1FD582" mask="url(#mask-2)"></path>
                    </g>
                    <path d="M29.7535,10.8832 C29.7535,10.6182 29.9685,10.4032 30.2335,10.4032 C30.4985,10.4032 30.7135,10.6182 30.7135,10.8832 C30.7135,11.5292 30.4515,12.1142 30.0275,12.5372 C29.6055,12.9602 29.0195,13.2232 28.3735,13.2232 C28.1085,13.2232 27.8935,13.0082 27.8935,12.7422 C27.8935,12.4782 28.1085,12.2632 28.3735,12.2632 C28.7545,12.2632 29.0995,12.1082 29.3495,11.8592 C29.5985,11.6092 29.7535,11.2642 29.7535,10.8832" id="Fill-28" fill="#1FD582"></path>
                    <path d="M26.6539,11.5024 C26.6539,11.2384 26.8689,11.0234 27.1339,11.0234 C27.3989,11.0234 27.6139,11.2384 27.6139,11.5024 C27.6139,11.7124 27.6999,11.9024 27.8369,12.0394 C27.9739,12.1774 28.1639,12.2624 28.3739,12.2624 C28.6379,12.2624 28.8539,12.4784 28.8539,12.7424 C28.8539,13.0074 28.6379,13.2224 28.3739,13.2224 C27.8989,13.2224 27.4679,13.0294 27.1569,12.7194 C26.8459,12.4074 26.6539,11.9784 26.6539,11.5024" id="Fill-30" fill="#1FD582"></path>
                    <path d="M27.6144,11.5024 C27.6144,11.7674 27.3984,11.9824 27.1344,11.9824 C26.8694,11.9824 26.6544,11.7674 26.6544,11.5024 C26.6544,11.1994 26.7774,10.9234 26.9754,10.7254 C27.1754,10.5254 27.4494,10.4024 27.7534,10.4024 C28.0184,10.4024 28.2334,10.6174 28.2334,10.8834 C28.2334,11.1484 28.0184,11.3624 27.7534,11.3624 C27.7154,11.3624 27.6794,11.3784 27.6554,11.4034 C27.6304,11.4284 27.6144,11.4644 27.6144,11.5024" id="Fill-32" fill="#1FD582"></path>
                    <path d="M15.046,1.8598 C15.31,1.8598 15.526,2.0758 15.526,2.3398 C15.526,2.6048 15.31,2.8198 15.046,2.8198 C14.836,2.8198 14.646,2.9058 14.509,3.0428 L14.491,3.0588 C14.364,3.1948 14.286,3.3788 14.286,3.5798 C14.286,3.8438 14.071,4.0598 13.806,4.0598 C13.541,4.0598 13.326,3.8438 13.326,3.5798 C13.326,3.1228 13.507,2.7048 13.801,2.3948 L13.83,2.3638 C14.141,2.0518 14.57,1.8598 15.046,1.8598" id="Fill-34" fill="#1FD582"></path>
                </g>
            </g>
        </g>
    </g>
</svg>