<?xml version="1.0" encoding="UTF-8"?>
<svg width="21px" height="24px" viewBox="0 0 21 24" version="1.1" xmlns="http://www.w3.org/2000/svg" xmlns:xlink="http://www.w3.org/1999/xlink">
    <!-- Generator: Sketch 47 (45396) - http://www.bohemiancoding.com/sketch -->
    <title>Group 13</title>
    <desc>Created with Sketch.</desc>
    <defs></defs>
    <g id="Page-1" stroke="none" stroke-width="1" fill="none" fill-rule="evenodd">
        <g id="GXX_LandingPage#1" transform="translate(-1034.000000, -282.000000)" fill="#1FD582">
            <g id="Group-16" transform="translate(925.000000, 120.000000)">
                <g id="Group-13" transform="translate(109.000000, 161.719700)">
                    <path d="M9.0657,1.7725 C8.8027,1.7975 8.5677,1.6055 8.5427,1.3425 C8.5167,1.0815 8.7097,0.8455 8.9717,0.8205 L8.9777,0.8195 C9.2397,0.7935 9.4747,0.9865 9.5007,1.2485 C9.5267,1.5105 9.3347,1.7465 9.0717,1.7715 L9.0657,1.7725 Z M11.7117,1.7695 C11.4487,1.7335 11.2657,1.4925 11.3017,1.2295 C11.3377,0.9675 11.5807,0.7855 11.8417,0.8215 C14.3887,1.1735 16.6407,2.4505 18.2507,4.2995 L18.2517,4.2985 C19.8387,6.1255 20.8007,8.5105 20.8007,11.1205 L20.8007,23.5195 C20.8007,23.7845 20.5857,24.0005 20.3207,24.0005 L20.3077,24.0005 L0.4797,24.0005 C0.2147,24.0005 0.0007,23.7845 0.0007,23.5195 L0.0007,23.5065 L0.0007,11.1205 C0.0007,9.0305 0.6197,7.0815 1.6827,5.4495 C2.7807,3.7665 4.3517,2.4195 6.2067,1.6015 C6.4487,1.4955 6.7327,1.6055 6.8387,1.8475 C6.9457,2.0885 6.8357,2.3735 6.5927,2.4795 C4.9087,3.2225 3.4807,4.4455 2.4857,5.9715 C1.5217,7.4505 0.9607,9.2185 0.9607,11.1205 L0.9607,23.0395 L19.8407,23.0395 L19.8407,11.1205 C19.8407,8.7515 18.9677,6.5845 17.5277,4.9295 L17.5287,4.9275 L17.5277,4.9265 C16.0687,3.2495 14.0237,2.0905 11.7117,1.7695 L11.7117,1.7695 Z" id="Fill-11"></path>
                </g>
            </g>
        </g>
    </g>
</svg>