<?xml version="1.0" encoding="UTF-8"?>
<svg width="64px" height="64px" viewBox="0 0 64 64" version="1.1" xmlns="http://www.w3.org/2000/svg" xmlns:xlink="http://www.w3.org/1999/xlink">
    <!-- Generator: Sketch 47 (45396) - http://www.bohemiancoding.com/sketch -->
    <title>Group 20</title>
    <desc>Created with Sketch.</desc>
    <defs>
        <polygon id="path-1" points="14.719 5.4773 14.719 0.6773 0.4696 0.6773 0.4696 5.4773"></polygon>
        <polygon id="path-3" points="0.2811 0.077 3.4181 0.077 3.4181 3.35527503 0.2811 3.35527503 0.2811 0.077"></polygon>
        <polygon id="path-5" points="10.719 0.4366 10.719 3.3156 0.8632 3.3156 0.8632 0.4366 10.719 0.4366"></polygon>
    </defs>
    <g id="Page-1" stroke="none" stroke-width="1" fill="none" fill-rule="evenodd">
        <g id="GXX_LandingPage#1" transform="translate(-531.000000, -1744.000000)">
            <g id="Group-20" transform="translate(531.000000, 1744.000000)">
                <circle id="Oval-Copy-4" fill="#F4F4F4" cx="32" cy="32" r="32"></circle>
                <g id="Page-1" transform="translate(16.000000, 19.000000)">
                    <g id="Group-3" transform="translate(16.000000, 9.923500)">
                        <mask id="mask-2" fill="white">
                            <use xlink:href="#path-1"></use>
                        </mask>
                        <g id="Clip-2"></g>
                        <path d="M0.9496,1.6373 C0.6846,1.6373 0.4696,1.4213 0.4696,1.1573 C0.4696,0.8923 0.6846,0.6773 0.9496,0.6773 L12.3196,0.6773 C12.6386,0.6773 12.9486,0.7423 13.2316,0.8613 C13.5236,0.9833 13.7896,1.1613 14.0106,1.3813 C14.2306,1.6023 14.4126,1.8683 14.5346,2.1613 C14.6526,2.4453 14.7196,2.7553 14.7196,3.0763 C14.7196,3.3923 14.6556,3.7033 14.5346,3.9933 C14.4146,4.2833 14.2386,4.5493 14.0156,4.7723 C13.7976,4.9913 13.5306,5.1693 13.2356,5.2923 C12.9506,5.4103 12.6396,5.4773 12.3196,5.4773 L5.3426,5.4773 C5.0776,5.4773 4.8626,5.2613 4.8626,4.9963 C4.8626,4.7323 5.0776,4.5173 5.3426,4.5173 L12.3196,4.5173 C12.5146,4.5173 12.7006,4.4773 12.8686,4.4083 C13.0426,4.3353 13.2026,4.2273 13.3366,4.0933 C13.4726,3.9563 13.5796,3.7963 13.6506,3.6253 C13.7206,3.4553 13.7596,3.2693 13.7596,3.0763 C13.7596,2.8813 13.7206,2.6963 13.6496,2.5293 C13.5766,2.3533 13.4686,2.1933 13.3356,2.0613 C13.2016,1.9273 13.0406,1.8193 12.8646,1.7453 C12.6986,1.6763 12.5136,1.6373 12.3196,1.6373 L0.9496,1.6373 Z" id="Fill-1" fill="#1FD582" mask="url(#mask-2)"></path>
                    </g>
                    <path d="M17.3402,1.2522 C17.4662,1.0202 17.7572,0.9342 17.9882,1.0602 C18.2212,1.1862 18.3062,1.4772 18.1812,1.7082 L13.8882,9.5682 C13.7622,9.8002 13.4722,9.8862 13.2392,9.7602 C13.0082,9.6342 12.9222,9.3432 13.0482,9.1112 L17.3402,1.2522 Z" id="Fill-4" fill="#1FD582"></path>
                    <path d="M13.0863,9.0491 C13.2473,8.8391 13.5483,8.7991 13.7583,8.9591 C13.9683,9.1191 14.0083,9.4201 13.8473,9.6301 C13.1213,10.5831 12.4723,11.0681 11.7703,11.3161 C11.0753,11.5621 10.3873,11.5621 9.5313,11.5621 C9.2673,11.5621 9.0513,11.3471 9.0513,11.0811 C9.0513,10.8171 9.2673,10.6021 9.5313,10.6021 C10.2993,10.6021 10.9173,10.6011 11.4513,10.4121 C11.9793,10.2261 12.4873,9.8351 13.0863,9.0491" id="Fill-6" fill="#1FD582"></path>
                    <g id="Group-10" transform="translate(17.000000, 0.923500)">
                        <mask id="mask-4" fill="white">
                            <use xlink:href="#path-3"></use>
                        </mask>
                        <g id="Clip-9"></g>
                        <path d="M0.7601,1.0367 C0.4951,1.0367 0.2811,0.8217 0.2811,0.5567 C0.2811,0.2917 0.4951,0.0767 0.7601,0.0767 C0.9411,0.0767 1.1341,0.0987 1.3301,0.1407 L1.3561,0.1467 C1.8291,0.2557 2.3291,0.4927 2.7141,0.8557 C3.1291,1.2457 3.4151,1.7767 3.4161,2.4467 L3.4181,2.4467 C3.4181,2.6147 3.3991,2.7927 3.3591,2.9767 C3.3031,3.2347 3.0471,3.3997 2.7881,3.3447 C2.5301,3.2887 2.3651,3.0327 2.4211,2.7737 C2.4461,2.6597 2.4571,2.5507 2.4571,2.4467 L2.4601,2.4467 C2.4601,2.0767 2.2951,1.7767 2.0581,1.5537 C1.8031,1.3117 1.4621,1.1537 1.1361,1.0807 L1.1241,1.0787 C0.9971,1.0517 0.8731,1.0367 0.7601,1.0367" id="Fill-8" fill="#1FD582" mask="url(#mask-4)"></path>
                    </g>
                    <path d="M19.4281,3.6673 C19.5001,3.4133 19.7661,3.2663 20.0201,3.3373 C20.2751,3.4093 20.4221,3.6753 20.3501,3.9293 L19.0581,8.4583 C18.9861,8.7123 18.7201,8.8593 18.4661,8.7883 C18.2111,8.7163 18.0641,8.4503 18.1361,8.1963 L19.4281,3.6673 Z" id="Fill-11" fill="#1FD582"></path>
                    <path d="M7.1996,26.9231 L0.4926,26.9231 L0.4796,26.9231 C0.2156,26.9231 0.0006,26.7081 0.0006,26.4441 L0.0006,10.1341 L0.0006,10.1221 C0.0006,9.8571 0.2156,9.6421 0.4796,9.6421 L7.1866,9.6421 L7.1996,9.6421 C7.4646,9.6421 7.6796,9.8571 7.6796,10.1221 L7.6796,26.4311 L7.6796,26.4441 C7.6796,26.7081 7.4646,26.9231 7.1996,26.9231 L7.1996,26.9231 Z M0.9606,25.9631 L6.7196,25.9631 L6.7196,10.6021 L0.9606,10.6021 L0.9606,25.9631 Z" id="Fill-13" fill="#1FD582"></path>
                    <path d="M16.9281,25.9827 C17.1821,26.0527 17.3311,26.3167 17.2611,26.5707 C17.1911,26.8257 16.9271,26.9747 16.6721,26.9047 L12.0691,25.6287 L9.5381,25.6287 C9.2741,25.6287 9.0581,25.4137 9.0581,25.1487 C9.0581,24.8837 9.2741,24.6697 9.5381,24.6697 L12.1261,24.6697 L12.1261,24.6707 C12.1681,24.6707 12.2111,24.6757 12.2541,24.6877 L16.9281,25.9827 Z" id="Fill-15" fill="#1FD582"></path>
                    <g id="Group-19" transform="translate(20.000000, 15.923500)">
                        <mask id="mask-6" fill="white">
                            <use xlink:href="#path-5"></use>
                        </mask>
                        <g id="Clip-18"></g>
                        <path d="M9.7592,0.9166 C9.7592,0.6516 9.9742,0.4366 10.2392,0.4366 C10.5042,0.4366 10.7192,0.6516 10.7192,0.9166 C10.7192,1.2326 10.6552,1.5446 10.5342,1.8326 C10.4142,2.1226 10.2382,2.3896 10.0162,2.6116 C9.7972,2.8306 9.5302,3.0096 9.2362,3.1326 C8.9502,3.2496 8.6402,3.3156 8.3202,3.3156 L1.3422,3.3156 C1.0772,3.3156 0.8632,3.1016 0.8632,2.8366 C0.8632,2.5706 1.0772,2.3556 1.3422,2.3556 L8.3202,2.3556 C8.5152,2.3556 8.7002,2.3166 8.8682,2.2476 C9.0422,2.1756 9.2022,2.0656 9.3362,1.9326 C9.4732,1.7956 9.5792,1.6366 9.6512,1.4656 C9.7212,1.2956 9.7592,1.1086 9.7592,0.9166" id="Fill-17" fill="#1FD582" mask="url(#mask-6)"></path>
                    </g>
                    <path d="M27.8373,20.6829 C27.8373,20.4179 28.0533,20.2029 28.3173,20.2029 C28.5823,20.2029 28.7983,20.4179 28.7983,20.6829 C28.7983,20.9969 28.7333,21.3089 28.6143,21.5979 L28.6133,21.5989 L28.6143,21.5989 C28.4943,21.8889 28.3173,22.1549 28.0953,22.3779 L28.0633,22.4069 C27.8483,22.6139 27.5943,22.7829 27.3153,22.8989 C27.0293,23.0159 26.7193,23.0819 26.4003,23.0819 L19.4213,23.0819 C19.1563,23.0819 18.9413,22.8679 18.9413,22.6019 C18.9413,22.3369 19.1563,22.1219 19.4213,22.1219 L26.4003,22.1219 C26.5943,22.1219 26.7803,22.0829 26.9463,22.0139 C27.1123,21.9449 27.2663,21.8449 27.3943,21.7219 L27.4153,21.6989 C27.5523,21.5619 27.6593,21.4019 27.7303,21.2319 L27.7313,21.2319 C27.8003,21.0629 27.8373,20.8759 27.8373,20.6829" id="Fill-20" fill="#1FD582"></path>
                    <path d="M24.1254,24.5227 C24.1254,24.2577 24.3414,24.0437 24.6054,24.0437 C24.8704,24.0437 25.0854,24.2577 25.0854,24.5227 C25.0854,25.1837 24.8154,25.7847 24.3814,26.2187 L24.3494,26.2487 C23.9184,26.6647 23.3304,26.9227 22.6874,26.9227 L16.8004,26.9227 C16.5354,26.9227 16.3194,26.7077 16.3194,26.4427 C16.3194,26.1777 16.5354,25.9617 16.8004,25.9617 L22.6874,25.9617 C23.0734,25.9617 23.4244,25.8097 23.6814,25.5617 L23.7024,25.5397 C23.9634,25.2787 24.1254,24.9187 24.1254,24.5227" id="Fill-22" fill="#1FD582"></path>
                </g>
            </g>
        </g>
    </g>
</svg>