<?xml version="1.0" encoding="UTF-8"?>
<svg width="64px" height="64px" viewBox="0 0 64 64" version="1.1" xmlns="http://www.w3.org/2000/svg" xmlns:xlink="http://www.w3.org/1999/xlink">
    <!-- Generator: Sketch 47 (45396) - http://www.bohemiancoding.com/sketch -->
    <title>Group 24</title>
    <desc>Created with Sketch.</desc>
    <defs>
        <polygon id="path-1" points="0.0004 14 13.3304 14 13.3304 0.6692 0.0004 0.6692"></polygon>
        <polygon id="path-3" points="13.716 13.6613 13.716 0.3303 0.3872 0.3303 0.3872 13.6613 13.716 13.6613"></polygon>
    </defs>
    <g id="Page-1" stroke="none" stroke-width="1" fill="none" fill-rule="evenodd">
        <g id="GXX_LandingPage#1" transform="translate(-971.000000, -1339.000000)">
            <g id="Group-24" transform="translate(971.000000, 1339.000000)">
                <circle id="Oval-Copy-6" fill="#F4F4F4" cx="32" cy="32" r="32"></circle>
                <g id="Page-1" transform="translate(17.000000, 16.000000)">
                    <g id="Group-3" transform="translate(0.000000, 17.669700)">
                        <mask id="mask-2" fill="white">
                            <use xlink:href="#path-1"></use>
                        </mask>
                        <g id="Clip-2"></g>
                        <path d="M10.7004,11.3682 C11.7314,10.3382 12.3694,8.9112 12.3694,7.3352 C12.3694,5.7592 11.7314,4.3312 10.7004,3.3012 L10.6984,3.2992 C9.6684,2.2672 8.2414,1.6302 6.6654,1.6302 C5.0894,1.6302 3.6624,2.2672 2.6314,3.2992 L2.6294,3.3012 C1.5974,4.3312 0.9604,5.7592 0.9604,7.3352 C0.9604,8.9112 1.5974,10.3382 2.6294,11.3682 L2.6314,11.3712 C3.6624,12.4022 5.0894,13.0402 6.6654,13.0402 C8.2414,13.0402 9.6684,12.4022 10.6984,11.3712 L10.7004,11.3682 Z M13.3304,7.3352 C13.3304,9.1722 12.5844,10.8392 11.3774,12.0462 L11.3764,12.0472 L11.3754,12.0482 L11.3754,12.0492 C10.1684,13.2542 8.5024,14.0002 6.6654,14.0002 C4.8284,14.0002 3.1614,13.2542 1.9544,12.0482 L1.9534,12.0472 L1.9524,12.0462 L1.9514,12.0452 C0.7464,10.8382 0.0004,9.1722 0.0004,7.3352 C0.0004,5.4972 0.7464,3.8312 1.9524,2.6242 L1.9534,2.6232 L1.9544,2.6222 L1.9554,2.6212 C3.1624,1.4152 4.8284,0.6692 6.6654,0.6692 C8.5024,0.6692 10.1684,1.4152 11.3754,2.6222 L11.3764,2.6232 L11.3774,2.6242 L11.3784,2.6252 C12.5844,3.8312 13.3304,5.4972 13.3304,7.3352 L13.3304,7.3352 Z" id="Fill-1" fill="#1FD582" mask="url(#mask-2)"></path>
                    </g>
                    <path d="M4.7961,14.9207 C4.7961,15.1847 4.5821,15.3987 4.3181,15.3987 C4.0551,15.3987 3.8411,15.1847 3.8411,14.9207 L3.8391,9.0157 L3.8361,9.0157 C3.8361,8.5847 3.9251,8.1687 4.0821,7.7877 C4.2461,7.3937 4.4851,7.0377 4.7791,6.7437 L4.8081,6.7187 C5.0981,6.4357 5.4431,6.2047 5.8241,6.0467 L5.8521,6.0357 C6.2261,5.8847 6.6311,5.8017 7.0511,5.8017 L7.0511,5.8037 L13.9171,5.8017 C14.1811,5.8017 14.3951,6.0157 14.3951,6.2787 C14.3951,6.5427 14.1811,6.7567 13.9171,6.7567 L7.0511,6.7587 L7.0511,6.7617 C6.7511,6.7617 6.4661,6.8187 6.2091,6.9227 L6.1921,6.9307 C5.9261,7.0417 5.6841,7.2027 5.4801,7.3997 L5.4591,7.4237 C5.2501,7.6327 5.0801,7.8817 4.9671,8.1557 C4.8581,8.4187 4.7971,8.7097 4.7971,9.0157 L4.7941,9.0157 L4.7961,14.9207 Z" id="Fill-4" fill="#1FD582"></path>
                    <path d="M3.7854,25.0047 C3.7854,25.2697 3.5704,25.4837 3.3064,25.4837 C3.0404,25.4837 2.8254,25.2697 2.8254,25.0047 C2.8254,23.9437 3.2554,22.9837 3.9504,22.2887 L3.9814,22.2607 C4.6744,21.5817 5.6224,21.1637 6.6654,21.1637 C6.9304,21.1637 7.1454,21.3797 7.1454,21.6447 C7.1454,21.9087 6.9304,22.1247 6.6654,22.1247 C5.8814,22.1247 5.1704,22.4367 4.6534,22.9417 L4.6294,22.9687 C4.1084,23.4887 3.7854,24.2097 3.7854,25.0047" id="Fill-6" fill="#1FD582"></path>
                    <g id="Group-10" transform="translate(17.000000, 0.669700)">
                        <mask id="mask-4" fill="white">
                            <use xlink:href="#path-3"></use>
                        </mask>
                        <g id="Clip-9"></g>
                        <path d="M11.0872,11.0293 C12.1182,9.9993 12.7562,8.5723 12.7562,6.9963 C12.7562,5.4193 12.1182,3.9923 11.0872,2.9623 L11.0852,2.9603 C10.0552,1.9283 8.6282,1.2913 7.0522,1.2913 C5.4752,1.2913 4.0492,1.9283 3.0182,2.9603 L3.0162,2.9623 C1.9842,3.9923 1.3472,5.4193 1.3472,6.9963 C1.3472,8.5723 1.9842,9.9993 3.0162,11.0293 L3.0182,11.0323 C4.0492,12.0623 5.4752,12.7003 7.0522,12.7003 C8.6282,12.7003 10.0552,12.0623 11.0852,11.0323 L11.0872,11.0293 Z M13.7162,6.9963 C13.7162,8.8333 12.9712,10.5003 11.7642,11.7063 L11.7632,11.7073 L11.7622,11.7093 L11.7612,11.7093 C10.5552,12.9153 8.8892,13.6613 7.0522,13.6613 C5.2142,13.6613 3.5482,12.9153 2.3412,11.7093 L2.3402,11.7073 L2.3392,11.7063 L2.3382,11.7063 C1.1332,10.4993 0.3872,8.8333 0.3872,6.9963 C0.3872,5.1583 1.1332,3.4923 2.3392,2.2853 L2.3402,2.2833 L2.3412,2.2823 L2.3422,2.2823 C3.5492,1.0763 5.2142,0.3303 7.0522,0.3303 C8.8892,0.3303 10.5552,1.0763 11.7622,2.2823 L11.7632,2.2833 L11.7642,2.2853 L11.7652,2.2853 C12.9712,3.4923 13.7162,5.1583 13.7162,6.9963 L13.7162,6.9963 Z" id="Fill-8" fill="#1FD582" mask="url(#mask-4)"></path>
                    </g>
                    <path d="M21.1721,7.6658 C21.1721,7.9308 20.9571,8.1448 20.6921,8.1448 C20.4271,8.1448 20.2121,7.9308 20.2121,7.6658 L20.2121,7.6638 C20.2121,6.6058 20.6431,5.6458 21.3361,4.9518 L21.3391,4.9498 C22.0331,4.2558 22.9921,3.8248 24.0511,3.8248 L24.0521,3.8248 C24.3171,3.8248 24.5311,4.0408 24.5311,4.3058 C24.5311,4.5698 24.3171,4.7858 24.0521,4.7858 L24.0511,4.7858 C23.2561,4.7858 22.5361,5.1068 22.0161,5.6268 L22.0131,5.6288 C21.4941,6.1488 21.1721,6.8698 21.1721,7.6638 L21.1721,7.6658 Z" id="Fill-11" fill="#1FD582"></path>
                    <path d="M11.6584,4.7 C11.4714,4.513 11.4714,4.208 11.6584,4.021 C11.8454,3.834 12.1504,3.834 12.3374,4.021 L14.2574,5.94 C14.4434,6.128 14.4434,6.432 14.2574,6.62 L14.2294,6.644 L12.3374,8.538 C12.1514,8.725 11.8474,8.726 11.6604,8.54 C11.4734,8.354 11.4714,8.051 11.6584,7.863 L13.2394,6.281 L11.6584,4.7 Z" id="Fill-13" fill="#1FD582"></path>
                    <path d="M2.0598,13.3406 C1.8728,13.1536 1.8728,12.8486 2.0598,12.6616 C2.2468,12.4746 2.5508,12.4746 2.7388,12.6616 L4.3198,14.2426 L5.9018,12.6616 C6.0888,12.4756 6.3928,12.4776 6.5788,12.6636 C6.7648,12.8516 6.7638,13.1546 6.5768,13.3406 L4.6828,15.2336 L4.6578,15.2606 C4.4708,15.4466 4.1658,15.4466 3.9788,15.2606 L2.0598,13.3406 Z" id="Fill-15" fill="#1FD582"></path>
                    <path d="M25.9221,17.7488 C25.9221,17.4848 26.1371,17.2698 26.4011,17.2698 C26.6641,17.2698 26.8781,17.4848 26.8781,17.7488 L26.8791,23.6538 L26.8821,23.6538 C26.8821,24.0848 26.7931,24.5008 26.6361,24.8798 C26.4731,25.2728 26.2341,25.6278 25.9391,25.9228 L25.9371,25.9248 L25.9221,25.9378 L25.9211,25.9398 C25.6281,26.2278 25.2781,26.4618 24.8931,26.6228 C24.5131,26.7798 24.0991,26.8678 23.6681,26.8678 L23.6681,26.8658 L16.8011,26.8668 C16.5371,26.8668 16.3231,26.6528 16.3231,26.3898 C16.3231,26.1258 16.5371,25.9108 16.8011,25.9108 L23.6681,25.9098 L23.6681,25.9068 C23.9741,25.9068 24.2641,25.8468 24.5261,25.7378 C24.8011,25.6238 25.0521,25.4548 25.2601,25.2478 L25.2621,25.2458 C25.4691,25.0378 25.6371,24.7878 25.7521,24.5128 C25.8601,24.2508 25.9211,23.9598 25.9211,23.6538 L25.9241,23.6538 L25.9221,17.7488 Z" id="Fill-17" fill="#1FD582"></path>
                    <path d="M19.0608,27.9715 C19.2468,28.1585 19.2458,28.4625 19.0578,28.6485 C18.8718,28.8345 18.5678,28.8325 18.3808,28.6465 L16.4618,26.7265 C16.2768,26.5395 16.2778,26.2375 16.4618,26.0515 L18.3808,24.1305 C18.5678,23.9445 18.8718,23.9435 19.0578,24.1285 C19.2458,24.3145 19.2468,24.6175 19.0608,24.8055 L17.4788,26.3885 L19.0608,27.9715 Z" id="Fill-19" fill="#1FD582"></path>
                    <path d="M28.6594,19.3279 C28.8464,19.5149 28.8464,19.8199 28.6594,20.0079 C28.4724,20.1939 28.1674,20.1939 27.9804,20.0079 L26.3994,18.4269 L24.8164,20.0079 C24.6294,20.1929 24.3254,20.1919 24.1394,20.0049 C23.9534,19.8179 23.9554,19.5149 24.1414,19.3279 L26.0364,17.4359 L26.0604,17.4089 C26.2484,17.2219 26.5534,17.2219 26.7404,17.4089 L28.6594,19.3279 Z" id="Fill-21" fill="#1FD582"></path>
                </g>
            </g>
        </g>
    </g>
</svg>