<?xml version="1.0" encoding="UTF-8"?>
<svg width="184px" height="88px" viewBox="0 0 184 88" version="1.1" xmlns="http://www.w3.org/2000/svg" xmlns:xlink="http://www.w3.org/1999/xlink">
    <!-- Generator: Sketch 47 (45396) - http://www.bohemiancoding.com/sketch -->
    <title>Artboard</title>
    <desc>Created with Sketch.</desc>
    <defs></defs>
    <g id="Page-2" stroke="none" stroke-width="1" fill="none" fill-rule="evenodd">
        <g id="Artboard">
            <g id="Inactive#3" transform="translate(0.000000, 8.000000)">
                <g id="Group-26">
                    <rect id="Rectangle-10" stroke-opacity="0.1" stroke="#212121" x="0.5" y="0.5" width="175" height="79" rx="6"></rect>
                    <text id="Insurance" font-family="Exo2-Regular, Exo 2" font-size="13" font-weight="normal" letter-spacing="-0.499999851" fill="#9FA3A7">
                        <tspan x="62.1949993" y="65">Insurance</tspan>
                    </text>
                    <g id="Page-1" transform="translate(78.000000, 16.000000)" fill="#9FA3A7">
                        <path d="M9.9136,20.3174 C9.9136,20.0464 10.1326,19.8274 10.4036,19.8274 C10.6736,19.8274 10.8926,20.0464 10.8926,20.3174 L10.8926,22.7964 C10.8926,23.0664 10.6736,23.2864 10.4036,23.2864 C10.1326,23.2864 9.9136,23.0664 9.9136,22.7964 L9.9136,20.3174 Z" id="Fill-1"></path>
                        <path d="M8.7422,20.1192 C8.3182,19.6952 8.0542,19.1062 8.0542,18.4582 C8.0542,17.8122 8.3182,17.2242 8.7422,16.8002 L8.7442,16.7982 C9.1702,16.3732 9.7572,16.1092 10.4032,16.1092 C11.0512,16.1092 11.6402,16.3732 12.0642,16.7982 L12.0632,16.7992 L12.0642,16.8002 C12.4892,17.2242 12.7522,17.8122 12.7522,18.4582 C12.7522,19.0872 12.5022,19.6602 12.0962,20.0832 L12.0642,20.1192 C11.6402,20.5432 11.0522,20.8072 10.4032,20.8072 C9.7732,20.8072 9.2002,20.5562 8.7772,20.1512 L8.7422,20.1192 Z M9.0342,18.4582 C9.0342,18.8362 9.1882,19.1792 9.4352,19.4272 L9.4562,19.4492 C9.7022,19.6832 10.0352,19.8272 10.4032,19.8272 C10.7812,19.8272 11.1242,19.6732 11.3712,19.4272 L11.3952,19.4042 C11.6282,19.1612 11.7722,18.8272 11.7722,18.4582 C11.7722,18.0802 11.6182,17.7372 11.3722,17.4892 L11.3712,17.4902 C11.1242,17.2432 10.7812,17.0902 10.4032,17.0902 C10.0252,17.0902 9.6822,17.2422 9.4352,17.4882 L9.4332,17.4902 C9.1872,17.7382 9.0342,18.0802 9.0342,18.4582 L9.0342,18.4582 Z" id="Fill-3"></path>
                        <path d="M10.0366,10.8936 C9.7656,10.8936 9.5466,10.6736 9.5466,10.4036 C9.5466,10.1326 9.7656,9.9136 10.0366,9.9136 L20.3166,9.9136 C20.5866,9.9136 20.8066,10.1326 20.8066,10.4036 L20.8066,10.4156 L20.8066,20.3176 L20.8066,20.3186 C20.8066,23.1916 19.6416,25.7916 17.7596,27.6736 C15.8786,29.5546 13.2776,30.7176 10.4046,30.7186 L10.4046,30.7206 L10.4036,30.7206 C7.5326,30.7206 4.9306,29.5556 3.0486,27.6716 L3.0476,27.6736 C1.1646,25.7906 -0.0004,23.1906 -0.0004,20.3176 L-0.0004,10.4036 C-0.0004,10.1326 0.2196,9.9136 0.4896,9.9136 L0.5026,9.9136 L5.4466,9.9136 C5.7166,9.9136 5.9356,10.1326 5.9356,10.4036 C5.9356,10.6736 5.7166,10.8936 5.4466,10.8936 L0.9796,10.8936 L0.9796,20.3176 C0.9796,22.9186 2.0356,25.2756 3.7406,26.9806 L3.7396,26.9816 L3.7406,26.9826 C5.4426,28.6856 7.7996,29.7406 10.4036,29.7406 L10.4046,29.7406 L10.4046,29.7436 C13.0036,29.7436 15.3606,28.6876 17.0666,26.9806 C18.7716,25.2756 19.8266,22.9196 19.8266,20.3186 L19.8266,20.3176 L19.8266,10.8936 L10.0366,10.8936 Z" id="Fill-5"></path>
                        <path d="M17.3511,15.3604 C17.3511,15.0914 17.5701,14.8724 17.8391,14.8724 C18.1081,14.8724 18.3271,15.0914 18.3271,15.3604 L18.3261,20.3174 L18.3281,20.3174 L18.3281,20.3184 C18.3281,22.5064 17.4411,24.4874 16.0071,25.9224 L15.9771,25.9494 C14.5451,27.3674 12.5761,28.2424 10.4051,28.2424 L10.4031,28.2424 C8.2171,28.2424 6.2351,27.3554 4.8011,25.9214 L4.8001,25.9224 C3.3651,24.4874 2.4781,22.5064 2.4781,20.3174 L2.4781,12.8814 C2.4781,12.6114 2.6981,12.3914 2.9681,12.3914 L2.9811,12.3914 L17.8391,12.3914 C18.1091,12.3914 18.3291,12.6114 18.3291,12.8814 C18.3291,13.1524 18.1091,13.3724 17.8391,13.3724 L3.4581,13.3724 L3.4581,20.3174 C3.4581,22.2354 4.2361,23.9714 5.4931,25.2284 L5.4921,25.2294 L5.4931,25.2304 C6.7471,26.4854 8.4841,27.2624 10.4031,27.2624 L10.4051,27.2624 C12.3111,27.2624 14.0381,26.4964 15.2901,25.2554 L15.3141,25.2284 C16.5701,23.9714 17.3481,22.2354 17.3481,20.3184 L17.3481,20.3174 L17.3501,20.3174 L17.3511,15.3604 Z" id="Fill-8"></path>
                        <path d="M15.8501,7.9258 C15.8501,8.1958 15.6301,8.4148 15.3601,8.4148 C15.0901,8.4148 14.8701,8.1958 14.8701,7.9258 L14.8701,5.4468 C14.8701,4.2128 14.3701,3.0948 13.5631,2.2868 C12.7551,1.4798 11.6371,0.9798 10.4031,0.9798 C9.7941,0.9798 9.2161,1.1008 8.6931,1.3168 C8.1511,1.5408 7.6591,1.8738 7.2451,2.2878 C6.4371,3.0968 5.9361,4.2128 5.9361,5.4468 L5.9361,7.9258 L5.9361,10.4038 C5.9361,10.6738 5.7171,10.8938 5.4461,10.8938 C5.1761,10.8938 4.9561,10.6738 4.9561,10.4038 L4.9561,7.9258 L4.9561,5.4468 C4.9561,3.9428 5.5661,2.5808 6.5521,1.5948 C7.0511,1.0958 7.6521,0.6918 8.3221,0.4138 C8.9661,0.1478 9.6701,-0.0002 10.4031,-0.0002 C11.9061,-0.0002 13.2671,0.6108 14.2531,1.5948 L14.2551,1.5978 C15.2401,2.5828 15.8501,3.9448 15.8501,5.4468 L15.8501,7.9258 Z" id="Fill-10"></path>
                        <path d="M13.3721,7.9258 C13.3721,8.1958 13.1521,8.4148 12.8821,8.4148 C12.6121,8.4148 12.3921,8.1958 12.3921,7.9258 L12.3921,5.4468 C12.3921,4.8968 12.1691,4.3998 11.8111,4.0408 L11.8091,4.0388 C11.4511,3.6808 10.9541,3.4578 10.4031,3.4578 C10.1311,3.4578 9.8731,3.5118 9.6431,3.6068 L9.6431,3.6078 C9.4011,3.7068 9.1821,3.8568 8.9971,4.0408 C8.8121,4.2268 8.6631,4.4468 8.5641,4.6858 L8.5631,4.6868 L8.5641,4.6868 C8.4681,4.9178 8.4151,5.1758 8.4151,5.4468 L8.4151,6.6858 L8.4151,10.4048 C8.4151,10.6738 8.1951,10.8938 7.9251,10.8938 C7.6551,10.8938 7.4351,10.6738 7.4351,10.4048 L7.4351,6.6858 L7.4351,5.4468 C7.4351,5.0478 7.5151,4.6628 7.6621,4.3118 L7.6621,4.3118 C7.8131,3.9458 8.0341,3.6178 8.3041,3.3478 C8.5761,3.0758 8.9031,2.8568 9.2681,2.7038 L9.2681,2.7048 L9.2691,2.7038 C9.6211,2.5588 10.0061,2.4788 10.4031,2.4788 C11.2201,2.4788 11.9611,2.8098 12.4981,3.3468 L12.5001,3.3478 L12.5011,3.3488 L12.5021,3.3508 C13.0391,3.8888 13.3721,4.6298 13.3721,5.4468 L13.3721,7.9258 Z" id="Fill-12"></path>
                    </g>
                </g>
            </g>
        </g>
    </g>
</svg>