<?xml version="1.0" encoding="UTF-8"?>
<svg width="184px" height="88px" viewBox="0 0 184 88" version="1.1" xmlns="http://www.w3.org/2000/svg" xmlns:xlink="http://www.w3.org/1999/xlink">
    <!-- Generator: Sketch 47 (45396) - http://www.bohemiancoding.com/sketch -->
    <title>Artboard</title>
    <desc>Created with Sketch.</desc>
    <defs></defs>
    <g id="Page-2" stroke="none" stroke-width="1" fill="none" fill-rule="evenodd">
        <g id="Artboard">
            <g id="Inactive#1" transform="translate(0.000000, 8.000000)">
                <g id="Group-23">
                    <rect id="Rectangle-10-Copy-2" stroke-opacity="0.1" stroke="#212121" x="0.5" y="0.5" width="175" height="79" rx="6"></rect>
                    <text id="Money" font-family="Exo2-Regular, Exo 2" font-size="13" font-weight="normal" letter-spacing="-0.499999851" fill="#9FA3A7">
                        <tspan x="70.1714996" y="65">Money</tspan>
                    </text>
                    <g id="Page-1" transform="translate(78.000000, 15.000000)" fill="#9FA3A7">
                        <path d="M8.8938,3.6846 C8.7418,3.4686 8.7928,3.1696 9.0098,3.0176 C9.2258,2.8666 9.5248,2.9176 9.6768,3.1336 L10.4008,4.1606 L11.1248,3.1336 C11.2778,2.9176 11.5768,2.8666 11.7918,3.0176 C12.0078,3.1696 12.0608,3.4686 11.9088,3.6846 L10.7948,5.2626 C10.7638,5.3086 10.7238,5.3486 10.6758,5.3826 C10.4598,5.5346 10.1618,5.4826 10.0088,5.2666 L8.8938,3.6846 Z" id="Fill-1"></path>
                        <path d="M18.3215,25.2793 C18.3215,25.5443 18.1055,25.7593 17.8415,25.7593 C17.5765,25.7593 17.3605,25.5443 17.3605,25.2793 L17.3605,17.8403 C17.3605,15.9173 16.5825,14.1753 15.3245,12.9193 L15.3235,12.9183 L15.3225,12.9193 C14.0625,11.6603 12.3225,10.8813 10.4005,10.8813 C8.4795,10.8813 6.7395,11.6603 5.4795,12.9193 L5.4565,12.9413 C4.2115,14.1953 3.4415,15.9273 3.4415,17.8403 L3.4415,27.2793 L17.8415,27.2793 C18.1055,27.2793 18.3215,27.4943 18.3215,27.7583 C18.3215,28.0233 18.1055,28.2393 17.8415,28.2393 L2.9735,28.2393 L2.9615,28.2393 C2.6965,28.2393 2.4805,28.0233 2.4805,27.7583 L2.4805,17.8403 C2.4805,15.6693 3.3565,13.7003 4.7735,12.2683 L4.8005,12.2393 C6.2335,10.8073 8.2145,9.9203 10.4005,9.9203 C12.5885,9.9203 14.5685,10.8073 16.0015,12.2393 L16.0005,12.2413 C17.4335,13.6753 18.3215,15.6553 18.3215,17.8403 L18.3215,25.2793 Z" id="Fill-3"></path>
                        <path d="M7.4407,21.5596 C7.4407,21.2946 7.6567,21.0796 7.9207,21.0796 C8.1857,21.0796 8.4017,21.2946 8.4017,21.5596 C8.4017,22.1116 8.6267,22.6126 8.9867,22.9736 C9.3487,23.3346 9.8487,23.5596 10.4007,23.5596 C10.9527,23.5596 11.4537,23.3346 11.8157,22.9736 C12.1757,22.6126 12.4007,22.1116 12.4007,21.5596 C12.4007,21.0066 12.1767,20.5066 11.8177,20.1456 L11.8157,20.1436 C11.4537,19.7836 10.9527,19.5596 10.4007,19.5596 C9.7567,19.5596 9.1717,19.2976 8.7477,18.8726 L8.7467,18.8736 C8.3237,18.4516 8.0607,17.8666 8.0607,17.2196 C8.0607,16.5736 8.3237,15.9876 8.7467,15.5646 L8.7797,15.5356 C9.2007,15.1286 9.7727,14.8786 10.4007,14.8786 C11.0467,14.8786 11.6317,15.1416 12.0557,15.5646 C12.4787,15.9876 12.7417,16.5736 12.7417,17.2196 C12.7417,17.4846 12.5257,17.7006 12.2607,17.7006 C11.9967,17.7006 11.7807,17.4846 11.7807,17.2196 C11.7807,16.8386 11.6267,16.4936 11.3767,16.2446 C11.1277,15.9946 10.7817,15.8396 10.4007,15.8396 C10.0317,15.8396 9.6957,15.9836 9.4507,16.2176 L9.4257,16.2446 C9.1757,16.4936 9.0217,16.8386 9.0217,17.2196 C9.0217,17.6006 9.1757,17.9466 9.4257,18.1956 L9.4247,18.1966 L9.4257,18.1976 C9.6727,18.4466 10.0187,18.5996 10.4007,18.5996 C11.2157,18.5996 11.9577,18.9316 12.4927,19.4666 L12.4947,19.4686 C13.0287,20.0036 13.3617,20.7446 13.3617,21.5596 C13.3617,22.3766 13.0287,23.1186 12.4947,23.6526 C11.9597,24.1876 11.2177,24.5196 10.4007,24.5196 C9.5837,24.5196 8.8427,24.1876 8.3077,23.6526 C7.7737,23.1186 7.4407,22.3766 7.4407,21.5596" id="Fill-5"></path>
                        <path d="M9.9211,14.1202 C9.9211,13.8542 10.1361,13.6402 10.4001,13.6402 C10.6651,13.6402 10.8811,13.8542 10.8811,14.1202 L10.8811,25.2792 C10.8811,25.5442 10.6651,25.7602 10.4001,25.7602 C10.1361,25.7602 9.9211,25.5442 9.9211,25.2792 L9.9211,14.1202 Z" id="Fill-7"></path>
                        <path d="M12.1926,8.2559 C12.0596,8.4849 11.7666,8.5629 11.5386,8.4309 C11.3096,8.2979 11.2316,8.0049 11.3636,7.7769 L14.7026,1.9929 C14.1186,1.6939 13.4966,1.4539 12.8476,1.2799 C12.0706,1.0709 11.2496,0.9599 10.4006,0.9599 C9.5526,0.9599 8.7316,1.0709 7.9526,1.2799 C7.3046,1.4539 6.6836,1.6939 6.0996,1.9929 L9.4386,7.7769 C9.5706,8.0049 9.4926,8.2979 9.2636,8.4309 C9.0356,8.5629 8.7426,8.4849 8.6096,8.2559 L5.0256,2.0479 C4.8936,1.8189 4.9716,1.5259 5.2006,1.3939 C5.9776,0.9439 6.8196,0.5899 7.7066,0.3539 C8.5666,0.1229 9.4716,-0.0001 10.4006,-0.0001 C11.3296,-0.0001 12.2346,0.1229 13.0946,0.3539 C13.9776,0.5889 14.8156,0.9409 15.5906,1.3879 L15.6016,1.3939 C15.8306,1.5259 15.9086,1.8189 15.7766,2.0479 L12.1926,8.2559 Z" id="Fill-9"></path>
                        <g id="Group-13" transform="translate(0.000000, 6.719700)">
                            <path d="M9.0657,1.7725 C8.8027,1.7975 8.5677,1.6055 8.5427,1.3425 C8.5167,1.0815 8.7097,0.8455 8.9717,0.8205 L8.9777,0.8195 C9.2397,0.7935 9.4747,0.9865 9.5007,1.2485 C9.5267,1.5105 9.3347,1.7465 9.0717,1.7715 L9.0657,1.7725 Z M11.7117,1.7695 C11.4487,1.7335 11.2657,1.4925 11.3017,1.2295 C11.3377,0.9675 11.5807,0.7855 11.8417,0.8215 C14.3887,1.1735 16.6407,2.4505 18.2507,4.2995 L18.2517,4.2985 C19.8387,6.1255 20.8007,8.5105 20.8007,11.1205 L20.8007,23.5195 C20.8007,23.7845 20.5857,24.0005 20.3207,24.0005 L20.3077,24.0005 L0.4797,24.0005 C0.2147,24.0005 0.0007,23.7845 0.0007,23.5195 L0.0007,23.5065 L0.0007,11.1205 C0.0007,9.0305 0.6197,7.0815 1.6827,5.4495 C2.7807,3.7665 4.3517,2.4195 6.2067,1.6015 C6.4487,1.4955 6.7327,1.6055 6.8387,1.8475 C6.9457,2.0885 6.8357,2.3735 6.5927,2.4795 C4.9087,3.2225 3.4807,4.4455 2.4857,5.9715 C1.5217,7.4505 0.9607,9.2185 0.9607,11.1205 L0.9607,23.0395 L19.8407,23.0395 L19.8407,11.1205 C19.8407,8.7515 18.9677,6.5845 17.5277,4.9295 L17.5287,4.9275 L17.5277,4.9265 C16.0687,3.2495 14.0237,2.0905 11.7117,1.7695 L11.7117,1.7695 Z" id="Fill-11"></path>
                        </g>
                    </g>
                </g>
            </g>
        </g>
    </g>
</svg>