<?xml version="1.0" encoding="UTF-8"?>
<svg width="184px" height="88px" viewBox="0 0 184 88" version="1.1" xmlns="http://www.w3.org/2000/svg" xmlns:xlink="http://www.w3.org/1999/xlink">
    <!-- Generator: Sketch 47 (45396) - http://www.bohemiancoding.com/sketch -->
    <title>Group 23 Copy</title>
    <desc>Created with Sketch.</desc>
    <defs></defs>
    <g id="Page-2" stroke="none" stroke-width="1" fill="none" fill-rule="evenodd">
        <g id="Group-23-Copy">
            <g id="Active#1" transform="translate(0.000000, 8.000000)">
                <g id="Group">
                    <rect id="Rectangle-10-Copy-2" stroke="#1FD582" x="0.5" y="0.5" width="175" height="79" rx="6"></rect>
                    <text id="Money" font-family="Exo2-Regular, Exo 2" font-size="13" font-weight="normal" letter-spacing="-0.499999851" fill="#1FD582">
                        <tspan x="70.1714996" y="65">Money</tspan>
                    </text>
                    <path d="M86.8938,18.6846 C86.7418,18.4686 86.7928,18.1696 87.0098,18.0176 C87.2258,17.8666 87.5248,17.9176 87.6768,18.1336 L88.4008,19.1606 L89.1248,18.1336 C89.2778,17.9176 89.5768,17.8666 89.7918,18.0176 C90.0078,18.1696 90.0608,18.4686 89.9088,18.6846 L88.7948,20.2626 C88.7638,20.3086 88.7238,20.3486 88.6758,20.3826 C88.4598,20.5346 88.1618,20.4826 88.0088,20.2666 L86.8938,18.6846 Z" id="Fill-1" fill="#1FD582"></path>
                    <path d="M96.3215,40.2793 C96.3215,40.5443 96.1055,40.7593 95.8415,40.7593 C95.5765,40.7593 95.3605,40.5443 95.3605,40.2793 L95.3605,32.8403 C95.3605,30.9173 94.5825,29.1753 93.3245,27.9193 L93.3235,27.9183 L93.3225,27.9193 C92.0625,26.6603 90.3225,25.8813 88.4005,25.8813 C86.4795,25.8813 84.7395,26.6603 83.4795,27.9193 L83.4565,27.9413 C82.2115,29.1953 81.4415,30.9273 81.4415,32.8403 L81.4415,42.2793 L95.8415,42.2793 C96.1055,42.2793 96.3215,42.4943 96.3215,42.7583 C96.3215,43.0233 96.1055,43.2393 95.8415,43.2393 L80.9735,43.2393 L80.9615,43.2393 C80.6965,43.2393 80.4805,43.0233 80.4805,42.7583 L80.4805,32.8403 C80.4805,30.6693 81.3565,28.7003 82.7735,27.2683 L82.8005,27.2393 C84.2335,25.8073 86.2145,24.9203 88.4005,24.9203 C90.5885,24.9203 92.5685,25.8073 94.0015,27.2393 L94.0005,27.2413 C95.4335,28.6753 96.3215,30.6553 96.3215,32.8403 L96.3215,40.2793 Z" id="Fill-3" fill="#1FD582"></path>
                    <path d="M85.4407,36.5596 C85.4407,36.2946 85.6567,36.0796 85.9207,36.0796 C86.1857,36.0796 86.4017,36.2946 86.4017,36.5596 C86.4017,37.1116 86.6267,37.6126 86.9867,37.9736 C87.3487,38.3346 87.8487,38.5596 88.4007,38.5596 C88.9527,38.5596 89.4537,38.3346 89.8157,37.9736 C90.1757,37.6126 90.4007,37.1116 90.4007,36.5596 C90.4007,36.0066 90.1767,35.5066 89.8177,35.1456 L89.8157,35.1436 C89.4537,34.7836 88.9527,34.5596 88.4007,34.5596 C87.7567,34.5596 87.1717,34.2976 86.7477,33.8726 L86.7467,33.8736 C86.3237,33.4516 86.0607,32.8666 86.0607,32.2196 C86.0607,31.5736 86.3237,30.9876 86.7467,30.5646 L86.7797,30.5356 C87.2007,30.1286 87.7727,29.8786 88.4007,29.8786 C89.0467,29.8786 89.6317,30.1416 90.0557,30.5646 C90.4787,30.9876 90.7417,31.5736 90.7417,32.2196 C90.7417,32.4846 90.5257,32.7006 90.2607,32.7006 C89.9967,32.7006 89.7807,32.4846 89.7807,32.2196 C89.7807,31.8386 89.6267,31.4936 89.3767,31.2446 C89.1277,30.9946 88.7817,30.8396 88.4007,30.8396 C88.0317,30.8396 87.6957,30.9836 87.4507,31.2176 L87.4257,31.2446 C87.1757,31.4936 87.0217,31.8386 87.0217,32.2196 C87.0217,32.6006 87.1757,32.9466 87.4257,33.1956 L87.4247,33.1966 L87.4257,33.1976 C87.6727,33.4466 88.0187,33.5996 88.4007,33.5996 C89.2157,33.5996 89.9577,33.9316 90.4927,34.4666 L90.4947,34.4686 C91.0287,35.0036 91.3617,35.7446 91.3617,36.5596 C91.3617,37.3766 91.0287,38.1186 90.4947,38.6526 C89.9597,39.1876 89.2177,39.5196 88.4007,39.5196 C87.5837,39.5196 86.8427,39.1876 86.3077,38.6526 C85.7737,38.1186 85.4407,37.3766 85.4407,36.5596" id="Fill-5" fill="#1FD582"></path>
                    <path d="M87.9211,29.1202 C87.9211,28.8542 88.1361,28.6402 88.4001,28.6402 C88.6651,28.6402 88.8811,28.8542 88.8811,29.1202 L88.8811,40.2792 C88.8811,40.5442 88.6651,40.7602 88.4001,40.7602 C88.1361,40.7602 87.9211,40.5442 87.9211,40.2792 L87.9211,29.1202 Z" id="Fill-7" fill="#1FD582"></path>
                    <path d="M90.1926,23.2559 C90.0596,23.4849 89.7666,23.5629 89.5386,23.4309 C89.3096,23.2979 89.2316,23.0049 89.3636,22.7769 L92.7026,16.9929 C92.1186,16.6939 91.4966,16.4539 90.8476,16.2799 C90.0706,16.0709 89.2496,15.9599 88.4006,15.9599 C87.5526,15.9599 86.7316,16.0709 85.9526,16.2799 C85.3046,16.4539 84.6836,16.6939 84.0996,16.9929 L87.4386,22.7769 C87.5706,23.0049 87.4926,23.2979 87.2636,23.4309 C87.0356,23.5629 86.7426,23.4849 86.6096,23.2559 L83.0256,17.0479 C82.8936,16.8189 82.9716,16.5259 83.2006,16.3939 C83.9776,15.9439 84.8196,15.5899 85.7066,15.3539 C86.5666,15.1229 87.4716,14.9999 88.4006,14.9999 C89.3296,14.9999 90.2346,15.1229 91.0946,15.3539 C91.9776,15.5889 92.8156,15.9409 93.5906,16.3879 L93.6016,16.3939 C93.8306,16.5259 93.9086,16.8189 93.7766,17.0479 L90.1926,23.2559 Z" id="Fill-9" fill="#1FD582"></path>
                    <path d="M87.0657,23.4922 C86.8027,23.5172 86.5677,23.3252 86.5427,23.0622 C86.5167,22.8012 86.7097,22.5652 86.9717,22.5402 L86.9777,22.5392 C87.2397,22.5132 87.4747,22.7062 87.5007,22.9682 C87.5267,23.2302 87.3347,23.4662 87.0717,23.4912 L87.0657,23.4922 Z M89.7117,23.4892 C89.4487,23.4532 89.2657,23.2122 89.3017,22.9492 C89.3377,22.6872 89.5807,22.5052 89.8417,22.5412 C92.3887,22.8932 94.6407,24.1702 96.2507,26.0192 L96.2517,26.0182 C97.8387,27.8452 98.8007,30.2302 98.8007,32.8402 L98.8007,45.2392 C98.8007,45.5042 98.5857,45.7202 98.3207,45.7202 L98.3077,45.7202 L78.4797,45.7202 C78.2147,45.7202 78.0007,45.5042 78.0007,45.2392 L78.0007,45.2262 L78.0007,32.8402 C78.0007,30.7502 78.6197,28.8012 79.6827,27.1692 C80.7807,25.4862 82.3517,24.1392 84.2067,23.3212 C84.4487,23.2152 84.7327,23.3252 84.8387,23.5672 C84.9457,23.8082 84.8357,24.0932 84.5927,24.1992 C82.9087,24.9422 81.4807,26.1652 80.4857,27.6912 C79.5217,29.1702 78.9607,30.9382 78.9607,32.8402 L78.9607,44.7592 L97.8407,44.7592 L97.8407,32.8402 C97.8407,30.4712 96.9677,28.3042 95.5277,26.6492 L95.5287,26.6472 L95.5277,26.6462 C94.0687,24.9692 92.0237,23.8102 89.7117,23.4892 L89.7117,23.4892 Z" id="Fill-11" fill="#1FD582"></path>
                </g>
            </g>
            <circle id="Oval-2" fill="#1FD582" cx="175.5" cy="8.5" r="8.5"></circle>
            <path d="M180.703662,5.29621677 C180.309706,4.90126108 179.671277,4.90126108 179.276822,5.29621677 L175.016299,9.55623892 L172.762552,7.29749229 C172.359098,6.8935376 171.705671,6.8935376 171.302216,7.29749229 C170.899261,7.70244686 170.899261,8.35637351 171.302216,8.76082814 L174.222389,11.686 C174.326377,11.7899884 174.447363,11.8664798 174.576349,11.9169741 C174.948807,12.0884549 175.403256,12.0234622 175.710222,11.7169965 L180.703662,6.72355667 C181.098117,6.32860097 181.098117,5.68917269 180.703662,5.29621677 Z" id="Shape" fill="#FFFFFF"></path>
        </g>
    </g>
</svg>