<?xml version="1.0" encoding="UTF-8"?>
<svg width="184px" height="88px" viewBox="0 0 184 88" version="1.1" xmlns="http://www.w3.org/2000/svg" xmlns:xlink="http://www.w3.org/1999/xlink">
    <!-- Generator: Sketch 47 (45396) - http://www.bohemiancoding.com/sketch -->
    <title>Group 23 Copy</title>
    <desc>Created with Sketch.</desc>
    <defs></defs>
    <g id="Page-2" stroke="none" stroke-width="1" fill="none" fill-rule="evenodd">
        <g id="Group-23-Copy">
            <g id="Active#4" transform="translate(0.000000, 8.000000)">
                <g id="Group-25-Copy">
                    <rect id="Rectangle-10-Copy" stroke="#1FD582" x="0.5" y="0.5" width="175" height="79" rx="6"></rect>
                    <g id="Page-1" transform="translate(73.000000, 16.000000)" fill="#1FD582">
                        <path d="M15.999,4.8011 C17.433,6.2351 18.32,8.2151 18.32,10.4011 C18.32,12.5721 17.444,14.5401 16.027,15.9721 L16,16.0001 C14.568,17.4331 12.587,18.3211 10.4,18.3211 C8.213,18.3211 6.232,17.4331 4.8,16.0001 C3.367,14.5681 2.48,12.5871 2.48,10.4011 C2.48,8.2151 3.368,6.2351 4.8,4.8021 L4.802,4.8001 C6.234,3.3671 8.215,2.4811 10.4,2.4811 C12.587,2.4811 14.568,3.3671 16,4.8001 L15.999,4.8011 Z M17.36,10.4011 C17.36,8.4771 16.581,6.7371 15.323,5.4801 L15.322,5.4781 L15.321,5.4801 C14.062,4.2201 12.322,3.4411 10.4,3.4411 C8.478,3.4411 6.737,4.2201 5.478,5.4781 C4.22,6.7371 3.44,8.4781 3.44,10.4011 C3.44,12.3221 4.22,14.0631 5.478,15.3221 C6.738,16.5801 8.478,17.3601 10.4,17.3601 C12.322,17.3601 14.062,16.5801 15.321,15.3221 L15.345,15.2991 C16.59,14.0441 17.36,12.3121 17.36,10.4011 L17.36,10.4011 Z" id="Fill-1"></path>
                        <path d="M19.3594,15.6839 C19.2254,15.9119 18.9304,15.9869 18.7034,15.8529 C18.4764,15.7179 18.4014,15.4239 18.5354,15.1969 C19.6154,13.3669 20.0254,11.2479 19.7664,9.2019 C19.5114,7.2019 18.6134,5.2649 17.0744,3.7249 C15.2314,1.8819 12.8154,0.9599 10.4004,0.9599 C7.9834,0.9599 5.5664,1.8819 3.7254,3.7229 L3.7244,3.7239 L3.7254,3.7249 C1.8824,5.5689 0.9604,7.9849 0.9604,10.4009 C0.9604,12.8159 1.8824,15.2329 3.7254,17.0759 C5.5674,18.9179 7.9844,19.8399 10.4004,19.8399 C12.8164,19.8399 15.2344,18.9179 17.0774,17.0759 C17.2644,16.8889 17.5674,16.8909 17.7544,17.0779 C17.9404,17.2649 17.9384,17.5689 17.7514,17.7539 C15.7204,19.7849 13.0594,20.8009 10.4004,20.8009 C7.7394,20.8009 5.0754,19.7849 3.0464,17.7539 C1.0154,15.7239 0.0004,13.0609 0.0004,10.4009 C0.0004,7.7399 1.0154,5.0769 3.0464,3.0459 L3.0474,3.0469 C5.0784,1.0159 7.7404,-0.0001 10.4004,-0.0001 C13.0604,-0.0001 15.7234,1.0149 17.7544,3.0459 C19.4464,4.7389 20.4344,6.8729 20.7144,9.0809 C21.0014,11.3369 20.5494,13.6679 19.3594,15.6839" id="Fill-3"></path>
                        <path d="M10.4004,4.9603 C10.6654,4.9603 10.8804,5.1753 10.8804,5.4403 C10.8804,5.7053 10.6654,5.9203 10.4004,5.9203 C10.0884,5.9203 9.7894,5.9513 9.5064,6.0073 C9.2114,6.0663 8.9254,6.1563 8.6544,6.2713 C8.3944,6.3813 8.1404,6.5203 7.8994,6.6823 L7.8744,6.6973 C7.6494,6.8523 7.4334,7.0323 7.2324,7.2323 C6.8244,7.6413 6.4944,8.1243 6.2704,8.6553 C6.1554,8.9263 6.0674,9.2123 6.0074,9.5073 C5.9514,9.7883 5.9204,10.0883 5.9204,10.4003 C5.9204,10.6653 5.7054,10.8803 5.4404,10.8803 C5.1754,10.8803 4.9604,10.6653 4.9604,10.4003 C4.9604,10.0373 4.9984,9.6753 5.0694,9.3203 C5.1424,8.9613 5.2504,8.6133 5.3894,8.2843 C5.6664,7.6303 6.0654,7.0423 6.5534,6.5543 C6.7864,6.3203 7.0494,6.1033 7.3344,5.9073 L7.3624,5.8883 C7.6464,5.6953 7.9554,5.5283 8.2844,5.3903 C8.6124,5.2513 8.9604,5.1423 9.3194,5.0693 C9.6754,4.9983 10.0374,4.9603 10.4004,4.9603" id="Fill-6"></path>
                        <path d="M17.0747,17.7542 C16.8877,17.5672 16.8877,17.2622 17.0747,17.0752 C17.2617,16.8882 17.5667,16.8882 17.7537,17.0752 L20.4917,19.8132 C20.6787,20.0002 20.6787,20.3052 20.4917,20.4922 C20.3047,20.6792 19.9997,20.6792 19.8127,20.4922 L17.0747,17.7542 Z" id="Fill-8"></path>
                        <path d="M20.5713,20.5726 L20.5713,20.5736 L20.5703,20.5736 C20.4243,20.7206 20.3503,20.9156 20.3503,21.1096 C20.3503,21.3046 20.4243,21.5006 20.5703,21.6466 L20.5713,21.6476 L23.2013,24.2776 L25.8313,26.9086 L28.4623,29.5386 L28.4623,29.5396 C28.6093,29.6856 28.8043,29.7606 28.9983,29.7606 C29.1933,29.7606 29.3883,29.6856 29.5353,29.5396 L29.5363,29.5386 L29.5363,29.5386 L29.5373,29.5396 C29.6833,29.3926 29.7573,29.1976 29.7573,29.0016 C29.7573,28.8066 29.6833,28.6116 29.5363,28.4656 L29.5363,28.4646 L26.9053,25.8346 L24.2753,23.2036 L21.6453,20.5736 L21.6443,20.5726 L21.6463,20.5716 C21.4993,20.4266 21.3043,20.3516 21.1083,20.3516 C20.9133,20.3516 20.7183,20.4266 20.5713,20.5726 L20.5713,20.5726 Z M19.8913,19.8936 L19.8923,19.8936 C20.2273,19.5586 20.6683,19.3916 21.1083,19.3916 C21.5473,19.3916 21.9873,19.5586 22.3213,19.8936 L22.3223,19.8946 L22.3233,19.8936 L22.3243,19.8936 L24.9543,22.5236 L27.5853,25.1546 L30.2153,27.7856 L30.2163,27.7856 C30.5503,28.1206 30.7173,28.5606 30.7173,29.0016 C30.7173,29.4396 30.5503,29.8806 30.2163,30.2156 L30.2153,30.2166 L30.2163,30.2176 L30.2153,30.2186 L30.2153,30.2186 C29.8803,30.5526 29.4383,30.7196 28.9983,30.7196 C28.5583,30.7196 28.1183,30.5526 27.7833,30.2186 L27.7823,30.2186 L25.1523,27.5876 L22.5223,24.9566 L19.8913,22.3266 L19.8913,22.3266 C19.5563,21.9916 19.3893,21.5506 19.3893,21.1096 C19.3893,20.6706 19.5563,20.2286 19.8913,19.8946 L19.8913,19.8936 Z" id="Fill-10"></path>
                    </g>
                    <text id="Other" font-family="Exo2-Regular, Exo 2" font-size="13" font-weight="normal" letter-spacing="-0.499999851" fill="#1FD582">
                        <tspan x="73.0579996" y="65">Other</tspan>
                    </text>
                </g>
            </g>
            <circle id="Oval-2" fill="#1FD582" cx="175.5" cy="8.5" r="8.5"></circle>
            <path d="M180.703662,5.29621677 C180.309706,4.90126108 179.671277,4.90126108 179.276822,5.29621677 L175.016299,9.55623892 L172.762552,7.29749229 C172.359098,6.8935376 171.705671,6.8935376 171.302216,7.29749229 C170.899261,7.70244686 170.899261,8.35637351 171.302216,8.76082814 L174.222389,11.686 C174.326377,11.7899884 174.447363,11.8664798 174.576349,11.9169741 C174.948807,12.0884549 175.403256,12.0234622 175.710222,11.7169965 L180.703662,6.72355667 C181.098117,6.32860097 181.098117,5.68917269 180.703662,5.29621677 Z" id="Shape" fill="#FFFFFF"></path>
        </g>
    </g>
</svg>