<?xml version="1.0" encoding="UTF-8"?>
<svg width="64px" height="64px" viewBox="0 0 64 64" version="1.1" xmlns="http://www.w3.org/2000/svg" xmlns:xlink="http://www.w3.org/1999/xlink">
    <!-- Generator: Sketch 47 (45396) - http://www.bohemiancoding.com/sketch -->
    <title>Group 23</title>
    <desc>Created with Sketch.</desc>
    <defs>
        <polygon id="path-1" points="0.0006 16 30.719 16 30.719 0.858259196 0.0006 0.858259196"></polygon>
    </defs>
    <g id="Page-1" stroke="none" stroke-width="1" fill="none" fill-rule="evenodd">
        <g id="GXX_LandingPage#1" transform="translate(-971.000000, -1204.000000)">
            <g id="Group-23" transform="translate(971.000000, 1204.000000)">
                <circle id="Oval-Copy-5" fill="#F4F4F4" cx="32" cy="32" r="32"></circle>
                <g id="Page-1" transform="translate(17.000000, 17.000000)">
                    <g id="Group-3" transform="translate(0.000000, 14.719600)">
                        <mask id="mask-2" fill="white">
                            <use xlink:href="#path-1"></use>
                        </mask>
                        <g id="Clip-2"></g>
                        <path d="M10.7086,0.8804 C10.9596,0.8014 11.2296,0.9404 11.3086,1.1924 C11.3886,1.4424 11.2496,1.7124 10.9976,1.7914 C8.0506,2.7274 5.5126,4.5874 3.7266,7.0294 C1.9876,9.4074 0.9606,12.3434 0.9606,15.5204 C0.9606,15.7844 0.7446,16.0004 0.4796,16.0004 C0.2156,16.0004 0.0006,15.7844 0.0006,15.5204 C0.0006,12.1354 1.0976,9.0044 2.9546,6.4644 C4.8586,3.8604 7.5646,1.8784 10.7086,0.8804 L10.7086,0.8804 Z M27.2636,16.0004 C26.9986,16.0004 26.7836,15.7844 26.7836,15.5204 C26.7836,15.2554 26.9986,15.0394 27.2636,15.0394 L29.7506,15.0394 C29.6526,12.0474 28.6436,9.2874 26.9926,7.0294 C25.2066,4.5864 22.6686,2.7274 19.7226,1.7914 C19.4706,1.7124 19.3316,1.4424 19.4116,1.1924 C19.4906,0.9404 19.7596,0.8014 20.0116,0.8804 C23.1546,1.8784 25.8606,3.8604 27.7646,6.4644 C29.6206,9.0004 30.7166,12.1264 30.7196,15.5064 L30.7196,15.5204 C30.7196,15.7844 30.5036,16.0004 30.2396,16.0004 L30.2266,16.0004 L27.2636,16.0004 Z M8.3716,16.0004 C8.1066,16.0004 7.8916,15.7844 7.8916,15.5204 C7.8916,15.2554 8.1066,15.0394 8.3716,15.0394 L24.8826,15.0394 C25.1476,15.0394 25.3636,15.2554 25.3636,15.5204 C25.3636,15.7844 25.1476,16.0004 24.8826,16.0004 L8.3716,16.0004 Z M2.8616,16.0004 C2.5966,16.0004 2.3806,15.7844 2.3806,15.5204 C2.3806,15.2554 2.5966,15.0394 2.8616,15.0394 L5.8366,15.0394 C6.1016,15.0394 6.3166,15.2554 6.3166,15.5204 C6.3166,15.7844 6.1016,16.0004 5.8366,16.0004 L2.8616,16.0004 Z" id="Fill-1" fill="#1FD582" mask="url(#mask-2)"></path>
                    </g>
                    <path d="M20.2809,2.9984 C19.0219,1.7394 17.2819,0.9604 15.3599,0.9604 C13.4379,0.9604 11.6969,1.7394 10.4379,2.9974 C9.1789,4.2564 8.4009,5.9974 8.4009,7.9204 C8.4009,9.8414 9.1799,11.5824 10.4389,12.8404 C11.6979,14.1004 13.4379,14.8794 15.3599,14.8794 C17.2829,14.8794 19.0239,14.1004 20.2809,12.8434 L20.2829,12.8404 C21.5409,11.5834 22.3199,9.8434 22.3199,7.9204 C22.3199,5.9984 21.5399,4.2574 20.2809,2.9984 M15.3599,0.0004 C17.5469,0.0004 19.5279,0.8874 20.9599,2.3194 C22.3929,3.7524 23.2799,5.7324 23.2799,7.9204 C23.2799,10.1034 22.3929,12.0834 20.9599,13.5184 L20.9589,13.5194 L20.9579,13.5194 L20.9569,13.5204 C19.5239,14.9524 17.5439,15.8394 15.3599,15.8394 C13.1729,15.8394 11.1919,14.9524 9.7599,13.5194 C8.3269,12.0874 7.4399,10.1064 7.4399,7.9204 C7.4399,5.7344 8.3269,3.7544 9.7599,2.3214 L9.7619,2.3194 C11.1949,0.8874 13.1749,0.0004 15.3599,0.0004" id="Fill-4" fill="#1FD582"></path>
                    <path d="M19.5689,2.3754 C18.4019,1.4874 16.9429,0.9604 15.3599,0.9604 C14.9209,0.9604 14.4959,1.0004 14.0919,1.0744 C13.7829,1.1314 13.4779,1.2094 13.1799,1.3084 L13.1799,2.1934 C13.1799,3.0904 13.5469,3.9054 14.1369,4.4974 L14.1389,4.4994 C14.7299,5.0894 15.5459,5.4564 16.4419,5.4564 L21.8719,5.4564 C21.4099,4.2334 20.6119,3.1744 19.5939,2.3934 L19.5689,2.3754 Z M15.3599,0.0004 C17.1589,0.0004 18.8189,0.6024 20.1509,1.6144 L20.1799,1.6404 C21.5249,2.6734 22.5289,4.1304 22.9919,5.8094 C23.0629,6.0634 22.9139,6.3264 22.6589,6.3964 C22.6159,6.4094 22.5729,6.4144 22.5309,6.4144 L22.5309,6.4164 L16.4419,6.4164 C15.2829,6.4164 14.2269,5.9404 13.4619,5.1764 L13.4599,5.1744 C12.6949,4.4094 12.2199,3.3534 12.2199,2.1934 L12.2199,0.9704 C12.2199,0.7544 12.3629,0.5714 12.5599,0.5114 C12.9919,0.3484 13.4469,0.2194 13.9199,0.1334 C14.3919,0.0464 14.8749,0.0004 15.3599,0.0004 L15.3599,0.0004 Z" id="Fill-6" fill="#1FD582"></path>
                    <path d="M10.2066,3.2416 C9.6246,3.8826 9.1596,4.6336 8.8476,5.4566 L8.9576,5.4566 C9.8536,5.4566 10.6696,5.0896 11.2616,4.4996 L11.2636,4.4976 C11.8526,3.9056 12.2196,3.0906 12.2196,2.1936 L12.2196,1.7076 C11.4576,2.0936 10.7756,2.6156 10.2066,3.2416 M7.7386,5.7656 C8.0766,4.5706 8.6866,3.4886 9.4986,2.5956 C10.3246,1.6876 11.3606,0.9706 12.5296,0.5226 C12.7766,0.4286 13.0536,0.5536 13.1476,0.8006 C13.1696,0.8556 13.1796,0.9136 13.1796,0.9706 L13.1806,0.9706 L13.1806,2.1936 C13.1806,3.3526 12.7046,4.4096 11.9406,5.1746 L11.9376,5.1766 C11.1736,5.9406 10.1176,6.4166 8.9576,6.4166 L8.1876,6.4166 C7.9226,6.4166 7.7076,6.2006 7.7076,5.9356 C7.7076,5.8766 7.7186,5.8186 7.7386,5.7656" id="Fill-8" fill="#1FD582"></path>
                    <path d="M15.36,19.597 L14.551,20.406 L15.36,21.215 L16.169,20.406 L15.36,19.597 Z M13.532,20.066 L15.02,18.577 C15.207,18.391 15.512,18.391 15.699,18.577 L17.188,20.066 C17.375,20.253 17.375,20.558 17.188,20.745 L15.699,22.234 C15.512,22.42 15.207,22.42 15.02,22.234 L13.532,20.745 C13.345,20.558 13.345,20.253 13.532,20.066 L13.532,20.066 Z" id="Fill-10" fill="#1FD582"></path>
                    <path d="M17.4518,28.0521 C17.5418,28.3001 17.4128,28.5751 17.1648,28.6651 C16.9168,28.7551 16.6418,28.6271 16.5518,28.3781 L15.3598,25.0861 L14.1688,28.3781 C14.0778,28.6271 13.8038,28.7551 13.5548,28.6651 C13.3068,28.5751 13.1778,28.3001 13.2678,28.0521 L14.9078,23.5211 C14.9538,23.3901 15.0568,23.2801 15.1968,23.2291 C15.4448,23.1391 15.7198,23.2681 15.8098,23.5161 L17.4518,28.0521 Z" id="Fill-12" fill="#1FD582"></path>
                    <path d="M17.2809,12.4652 C17.5239,12.3622 17.8039,12.4772 17.9059,12.7202 C18.0089,12.9632 17.8949,13.2432 17.6519,13.3462 C17.2939,13.4962 16.9189,13.6132 16.5299,13.6922 C16.1459,13.7692 15.7539,13.8112 15.3599,13.8112 C14.9669,13.8112 14.5739,13.7692 14.1899,13.6922 C13.8019,13.6132 13.4259,13.4962 13.0689,13.3462 C12.8249,13.2432 12.7119,12.9632 12.8139,12.7202 C12.9159,12.4772 13.1959,12.3622 13.4399,12.4652 C13.7379,12.5902 14.0529,12.6892 14.3769,12.7542 C14.6879,12.8172 15.0169,12.8502 15.3599,12.8502 C15.7029,12.8502 16.0319,12.8172 16.3429,12.7542 C16.6679,12.6892 16.9829,12.5902 17.2809,12.4652" id="Fill-14" fill="#1FD582"></path>
                    <path d="M23.7408,26.9496 C23.6388,26.7066 23.7528,26.4256 23.9958,26.3236 C24.2388,26.2216 24.5198,26.3356 24.6218,26.5786 C24.8628,27.1476 25.0498,27.7496 25.1748,28.3696 C25.2978,28.9796 25.3638,29.6056 25.3638,30.2386 C25.3638,30.5036 25.1478,30.7196 24.8828,30.7196 C24.6178,30.7196 24.4028,30.5036 24.4028,30.2386 C24.4028,29.6556 24.3458,29.0936 24.2378,28.5556 C24.1248,27.9996 23.9568,27.4616 23.7408,26.9496" id="Fill-16" fill="#1FD582"></path>
                    <path d="M6.317,30.2386 C6.317,30.5036 6.102,30.7186 5.837,30.7186 C5.572,30.7186 5.357,30.5036 5.357,30.2386 C5.357,29.6056 5.422,28.9796 5.545,28.3696 C5.67,27.7496 5.857,27.1476 6.098,26.5786 C6.2,26.3356 6.481,26.2216 6.724,26.3236 C6.967,26.4256 7.081,26.7066 6.979,26.9496 C6.763,27.4616 6.595,27.9996 6.483,28.5556 C6.374,29.0926 6.317,29.6556 6.317,30.2386" id="Fill-18" fill="#1FD582"></path>
                    <path d="M10.6207,16.474 C10.3897,16.345 10.3077,16.054 10.4347,15.824 C10.5627,15.592 10.8547,15.51 11.0857,15.638 C11.7277,15.995 12.4207,16.275 13.1477,16.461 L13.1497,16.462 L13.1497,16.461 C13.8497,16.643 14.5917,16.74 15.3597,16.74 C16.1277,16.74 16.8697,16.643 17.5707,16.461 L17.5917,16.456 C18.3107,16.27 18.9967,15.993 19.6347,15.638 C19.8657,15.51 20.1567,15.592 20.2847,15.824 C20.4127,16.054 20.3297,16.345 20.0997,16.474 C19.3917,16.866 18.6307,17.174 17.8287,17.383 L17.8107,17.388 C17.0237,17.591 16.2017,17.7 15.3597,17.7 C14.5177,17.7 13.6957,17.591 12.9097,17.388 L12.9097,17.387 C12.1007,17.179 11.3327,16.869 10.6207,16.474" id="Fill-20" fill="#1FD582"></path>
                </g>
            </g>
        </g>
    </g>
</svg>