<?xml version="1.0" encoding="UTF-8"?>
<svg width="64px" height="64px" viewBox="0 0 64 64" version="1.1" xmlns="http://www.w3.org/2000/svg" xmlns:xlink="http://www.w3.org/1999/xlink">
    <!-- Generator: Sketch 47 (45396) - http://www.bohemiancoding.com/sketch -->
    <title>Group 28</title>
    <desc>Created with Sketch.</desc>
    <defs>
        <polygon id="path-1" points="0 0.1929 0 20.9999 20.8066 20.9999 20.8066 0.1929"></polygon>
    </defs>
    <g id="Page-1" stroke="none" stroke-width="1" fill="none" fill-rule="evenodd">
        <g id="GXX_LandingPage#1" transform="translate(-971.000000, -1744.000000)">
            <g id="Group-28" transform="translate(971.000000, 1744.000000)">
                <circle id="Oval-Copy-9" fill="#212121" opacity="0.05" cx="32" cy="32" r="32"></circle>
                <g id="Page-1" transform="translate(22.000000, 17.000000)">
                    <path d="M9.9136,20.3174 C9.9136,20.0464 10.1326,19.8274 10.4036,19.8274 C10.6736,19.8274 10.8926,20.0464 10.8926,20.3174 L10.8926,22.7964 C10.8926,23.0664 10.6736,23.2864 10.4036,23.2864 C10.1326,23.2864 9.9136,23.0664 9.9136,22.7964 L9.9136,20.3174 Z" id="Fill-1" fill="#1FD582"></path>
                    <path d="M8.7422,20.1192 C8.3182,19.6952 8.0542,19.1062 8.0542,18.4582 C8.0542,17.8122 8.3182,17.2242 8.7422,16.8002 L8.7442,16.7982 C9.1702,16.3732 9.7572,16.1092 10.4032,16.1092 C11.0512,16.1092 11.6402,16.3732 12.0642,16.7982 L12.0632,16.7992 L12.0642,16.8002 C12.4892,17.2242 12.7522,17.8122 12.7522,18.4582 C12.7522,19.0872 12.5022,19.6602 12.0962,20.0832 L12.0642,20.1192 C11.6402,20.5432 11.0522,20.8072 10.4032,20.8072 C9.7732,20.8072 9.2002,20.5562 8.7772,20.1512 L8.7422,20.1192 Z M9.0342,18.4582 C9.0342,18.8362 9.1882,19.1792 9.4352,19.4272 L9.4562,19.4492 C9.7022,19.6832 10.0352,19.8272 10.4032,19.8272 C10.7812,19.8272 11.1242,19.6732 11.3712,19.4272 L11.3952,19.4042 C11.6282,19.1612 11.7722,18.8272 11.7722,18.4582 C11.7722,18.0802 11.6182,17.7372 11.3722,17.4892 L11.3712,17.4902 C11.1242,17.2432 10.7812,17.0902 10.4032,17.0902 C10.0252,17.0902 9.6822,17.2422 9.4352,17.4882 L9.4332,17.4902 C9.1872,17.7382 9.0342,18.0802 9.0342,18.4582 L9.0342,18.4582 Z" id="Fill-3" fill="#1FD582"></path>
                    <g id="Group-7" transform="translate(0.000000, 9.720700)">
                        <mask id="mask-2" fill="white">
                            <use xlink:href="#path-1"></use>
                        </mask>
                        <g id="Clip-6"></g>
                        <path d="M10.0366,1.1729 C9.7656,1.1729 9.5466,0.9529 9.5466,0.6829 C9.5466,0.4119 9.7656,0.1929 10.0366,0.1929 L20.3166,0.1929 C20.5866,0.1929 20.8066,0.4119 20.8066,0.6829 L20.8066,0.6949 L20.8066,10.5969 L20.8066,10.5979 C20.8066,13.4709 19.6416,16.0709 17.7596,17.9529 C15.8786,19.8339 13.2776,20.9969 10.4046,20.9979 L10.4046,20.9999 L10.4036,20.9999 C7.5326,20.9999 4.9306,19.8349 3.0486,17.9509 L3.0476,17.9529 C1.1646,16.0699 -0.0004,13.4699 -0.0004,10.5969 L-0.0004,0.6829 C-0.0004,0.4119 0.2196,0.1929 0.4896,0.1929 L0.5026,0.1929 L5.4466,0.1929 C5.7166,0.1929 5.9356,0.4119 5.9356,0.6829 C5.9356,0.9529 5.7166,1.1729 5.4466,1.1729 L0.9796,1.1729 L0.9796,10.5969 C0.9796,13.1979 2.0356,15.5549 3.7406,17.2599 L3.7396,17.2609 L3.7406,17.2619 C5.4426,18.9649 7.7996,20.0199 10.4036,20.0199 L10.4046,20.0199 L10.4046,20.0229 C13.0036,20.0229 15.3606,18.9669 17.0666,17.2599 C18.7716,15.5549 19.8266,13.1989 19.8266,10.5979 L19.8266,10.5969 L19.8266,1.1729 L10.0366,1.1729 Z" id="Fill-5" fill="#1FD582" mask="url(#mask-2)"></path>
                    </g>
                    <path d="M17.3511,15.3604 C17.3511,15.0914 17.5701,14.8724 17.8391,14.8724 C18.1081,14.8724 18.3271,15.0914 18.3271,15.3604 L18.3261,20.3174 L18.3281,20.3174 L18.3281,20.3184 C18.3281,22.5064 17.4411,24.4874 16.0071,25.9224 L15.9771,25.9494 C14.5451,27.3674 12.5761,28.2424 10.4051,28.2424 L10.4031,28.2424 C8.2171,28.2424 6.2351,27.3554 4.8011,25.9214 L4.8001,25.9224 C3.3651,24.4874 2.4781,22.5064 2.4781,20.3174 L2.4781,12.8814 C2.4781,12.6114 2.6981,12.3914 2.9681,12.3914 L2.9811,12.3914 L17.8391,12.3914 C18.1091,12.3914 18.3291,12.6114 18.3291,12.8814 C18.3291,13.1524 18.1091,13.3724 17.8391,13.3724 L3.4581,13.3724 L3.4581,20.3174 C3.4581,22.2354 4.2361,23.9714 5.4931,25.2284 L5.4921,25.2294 L5.4931,25.2304 C6.7471,26.4854 8.4841,27.2624 10.4031,27.2624 L10.4051,27.2624 C12.3111,27.2624 14.0381,26.4964 15.2901,25.2554 L15.3141,25.2284 C16.5701,23.9714 17.3481,22.2354 17.3481,20.3184 L17.3481,20.3174 L17.3501,20.3174 L17.3511,15.3604 Z" id="Fill-8" fill="#1FD582"></path>
                    <path d="M15.8501,7.9258 C15.8501,8.1958 15.6301,8.4148 15.3601,8.4148 C15.0901,8.4148 14.8701,8.1958 14.8701,7.9258 L14.8701,5.4468 C14.8701,4.2128 14.3701,3.0948 13.5631,2.2868 C12.7551,1.4798 11.6371,0.9798 10.4031,0.9798 C9.7941,0.9798 9.2161,1.1008 8.6931,1.3168 C8.1511,1.5408 7.6591,1.8738 7.2451,2.2878 C6.4371,3.0968 5.9361,4.2128 5.9361,5.4468 L5.9361,7.9258 L5.9361,10.4038 C5.9361,10.6738 5.7171,10.8938 5.4461,10.8938 C5.1761,10.8938 4.9561,10.6738 4.9561,10.4038 L4.9561,7.9258 L4.9561,5.4468 C4.9561,3.9428 5.5661,2.5808 6.5521,1.5948 C7.0511,1.0958 7.6521,0.6918 8.3221,0.4138 C8.9661,0.1478 9.6701,-0.0002 10.4031,-0.0002 C11.9061,-0.0002 13.2671,0.6108 14.2531,1.5948 L14.2551,1.5978 C15.2401,2.5828 15.8501,3.9448 15.8501,5.4468 L15.8501,7.9258 Z" id="Fill-10" fill="#1FD582"></path>
                    <path d="M13.3721,7.9258 C13.3721,8.1958 13.1521,8.4148 12.8821,8.4148 C12.6121,8.4148 12.3921,8.1958 12.3921,7.9258 L12.3921,5.4468 C12.3921,4.8968 12.1691,4.3998 11.8111,4.0408 L11.8091,4.0388 C11.4511,3.6808 10.9541,3.4578 10.4031,3.4578 C10.1311,3.4578 9.8731,3.5118 9.6431,3.6068 L9.6431,3.6078 C9.4011,3.7068 9.1821,3.8568 8.9971,4.0408 C8.8121,4.2268 8.6631,4.4468 8.5641,4.6858 L8.5631,4.6868 L8.5641,4.6868 C8.4681,4.9178 8.4151,5.1758 8.4151,5.4468 L8.4151,6.6858 L8.4151,10.4048 C8.4151,10.6738 8.1951,10.8938 7.9251,10.8938 C7.6551,10.8938 7.4351,10.6738 7.4351,10.4048 L7.4351,6.6858 L7.4351,5.4468 C7.4351,5.0478 7.5151,4.6628 7.6621,4.3118 L7.6621,4.3118 C7.8131,3.9458 8.0341,3.6178 8.3041,3.3478 C8.5761,3.0758 8.9031,2.8568 9.2681,2.7038 L9.2681,2.7048 L9.2691,2.7038 C9.6211,2.5588 10.0061,2.4788 10.4031,2.4788 C11.2201,2.4788 11.9611,2.8098 12.4981,3.3468 L12.5001,3.3478 L12.5011,3.3488 L12.5021,3.3508 C13.0391,3.8888 13.3721,4.6298 13.3721,5.4468 L13.3721,7.9258 Z" id="Fill-12" fill="#1FD582"></path>
                </g>
            </g>
        </g>
    </g>
</svg>