<?xml version="1.0" encoding="UTF-8"?>
<svg width="64px" height="64px" viewBox="0 0 64 64" version="1.1" xmlns="http://www.w3.org/2000/svg" xmlns:xlink="http://www.w3.org/1999/xlink">
    <!-- Generator: Sketch 47 (45396) - http://www.bohemiancoding.com/sketch -->
    <title>Group 20</title>
    <desc>Created with Sketch.</desc>
    <defs>
        <polygon id="path-1" points="0.7164 21 18.9568071 21 18.9568071 0.838639834 0.7164 0.838639834"></polygon>
    </defs>
    <g id="Page-1" stroke="none" stroke-width="1" fill="none" fill-rule="evenodd">
        <g id="GXX_LandingPage#1" transform="translate(-531.000000, -1339.000000)">
            <g id="Group-20" transform="translate(531.000000, 1339.000000)">
                <circle id="Oval-Copy" fill="#F4F4F4" cx="32" cy="32" r="32"></circle>
                <g id="Page-1" transform="translate(17.000000, 20.000000)">
                    <g id="Group-3" transform="translate(6.000000, 3.002500)">
                        <mask id="mask-2" fill="white">
                            <use xlink:href="#path-1"></use>
                        </mask>
                        <g id="Clip-2"></g>
                        <path d="M3.2574,17.7828 C3.4434,17.5958 3.7474,17.5948 3.9344,17.7808 C4.1214,17.9668 4.1224,18.2698 3.9364,18.4578 L1.5364,20.8588 C1.3514,21.0468 1.0474,21.0478 0.8604,20.8608 C0.7654,20.7678 0.7184,20.6448 0.7184,20.5218 L0.7164,20.5218 L0.7164,12.8398 C0.7164,12.6588 0.8174,12.5008 0.9654,12.4188 L18.2124,0.9198 C18.4314,0.7728 18.7294,0.8308 18.8764,1.0508 C19.0224,1.2698 18.9644,1.5668 18.7444,1.7148 L1.6774,13.0948 L1.6774,19.3638 L3.2574,17.7828 Z" id="Fill-1" fill="#1FD582" mask="url(#mask-2)"></path>
                    </g>
                    <path d="M8.778,18.0978 C8.592,17.9108 8.593,17.6068 8.78,17.4208 C8.967,17.2358 9.271,17.2368 9.457,17.4228 L14.812,22.7798 L29.759,1.2908 L29.759,1.1178 L1.39,9.3548 L7.536,15.5008 C7.723,15.6888 7.723,15.9938 7.536,16.1808 C7.349,16.3678 7.044,16.3678 6.857,16.1808 L0.139,9.4608 L0.14,9.4598 C0.085,9.4048 0.042,9.3348 0.019,9.2548 C-0.054,9.0018 0.091,8.7358 0.345,8.6618 L30.065,0.0328 C30.119,0.0118 30.177,-0.0002 30.239,-0.0002 C30.504,-0.0002 30.719,0.2148 30.719,0.4808 L30.719,1.4408 L30.718,1.4408 C30.718,1.5358 30.691,1.6308 30.632,1.7138 L15.272,23.7968 L15.272,23.7968 C15.255,23.8208 15.237,23.8428 15.216,23.8638 C15.029,24.0488 14.725,24.0478 14.539,23.8608 L8.778,18.0978 Z" id="Fill-4" fill="#1FD582"></path>
                </g>
            </g>
        </g>
    </g>
</svg>