<?xml version="1.0" encoding="UTF-8"?>
<svg width="64px" height="64px" viewBox="0 0 64 64" version="1.1" xmlns="http://www.w3.org/2000/svg" xmlns:xlink="http://www.w3.org/1999/xlink">
    <!-- Generator: Sketch 47 (45396) - http://www.bohemiancoding.com/sketch -->
    <title>Group 17</title>
    <desc>Created with Sketch.</desc>
    <defs>
        <polygon id="path-1" points="0.5808 1 20.1398 1 20.1398 0.0394 0.5808 0.0394"></polygon>
    </defs>
    <g id="Page-1" stroke="none" stroke-width="1" fill="none" fill-rule="evenodd">
        <g id="GXX_LandingPage#1" transform="translate(-531.000000, -1609.000000)">
            <g id="Group-17" transform="translate(531.000000, 1609.000000)">
                <circle id="Oval-Copy-3" fill="#F4F4F4" cx="32" cy="32" r="32"></circle>
                <g id="Page-1" transform="translate(17.000000, 20.000000)">
                    <g id="Group-3" transform="translate(0.000000, 0.660700)" fill="#1FD582">
                        <path d="M26.8293,11.2191 C26.5643,11.2191 26.3493,11.0041 26.3493,10.7401 C26.3493,10.4751 26.5643,10.2591 26.8293,10.2591 L30.2393,10.2591 C30.5043,10.2591 30.7203,10.4751 30.7203,10.7401 C30.7203,11.0041 30.5043,11.2191 30.2393,11.2191 L26.8293,11.2191 Z M30.7203,8.2591 C30.7203,8.5241 30.5043,8.7401 30.2393,8.7401 C29.9753,8.7401 29.7593,8.5241 29.7593,8.2591 L29.7593,1.2991 L0.9603,1.2991 L0.9603,10.2591 L3.8903,10.2591 C4.1553,10.2591 4.3703,10.4751 4.3703,10.7401 C4.3703,11.0041 4.1553,11.2191 3.8903,11.2191 L0.4923,11.2191 L0.4803,11.2191 C0.2153,11.2191 0.0003,11.0041 0.0003,10.7401 L0.0003,0.8321 L0.0003,0.8201 C0.0003,0.5551 0.2153,0.3391 0.4803,0.3391 L30.2263,0.3391 L30.2393,0.3391 C30.5043,0.3391 30.7203,0.5551 30.7203,0.8201 L30.7203,8.2591 Z" id="Fill-1"></path>
                    </g>
                    <path d="M4.8206,6.9208 C4.5546,6.9208 4.3406,6.7048 4.3406,6.4408 C4.3406,6.1758 4.5546,5.9598 4.8206,5.9598 L25.8996,5.9598 C26.1646,5.9598 26.3806,6.1758 26.3806,6.4408 C26.3806,6.7048 26.1646,6.9208 25.8996,6.9208 L4.8206,6.9208 Z" id="Fill-4" fill="#1FD582"></path>
                    <path d="M20.3196,8.4404 C20.5846,8.4404 20.7996,8.6554 20.7996,8.9194 C20.7996,9.1854 20.5846,9.4004 20.3196,9.4004 L12.5696,9.4004 C12.3046,9.4004 12.0896,9.1854 12.0896,8.9194 C12.0896,8.6554 12.3046,8.4404 12.5696,8.4404 L20.3196,8.4404 Z M10.4006,8.4404 C10.6656,8.4404 10.8806,8.6554 10.8806,8.9194 C10.8806,9.1854 10.6656,9.4004 10.4006,9.4004 L6.5406,9.4004 L6.5406,18.3604 L24.1796,18.3604 L24.1796,9.4004 L22.4896,9.4004 C22.2246,9.4004 22.0086,9.1854 22.0086,8.9194 C22.0086,8.6554 22.2246,8.4404 22.4896,8.4404 L24.6476,8.4404 L24.6596,8.4404 C24.9236,8.4404 25.1396,8.6554 25.1396,8.9194 L25.1396,18.8284 L25.1396,18.8404 C25.1396,19.1054 24.9236,19.3214 24.6596,19.3214 L6.0726,19.3214 L6.0596,19.3214 C5.7956,19.3214 5.5796,19.1054 5.5796,18.8404 L5.5796,8.9324 L5.5796,8.9194 C5.5796,8.6554 5.7956,8.4404 6.0596,8.4404 L10.4006,8.4404 Z" id="Fill-6" fill="#1FD582"></path>
                    <path d="M6.0608,21.4911 C5.7958,21.4911 5.5808,21.2751 5.5808,21.0111 C5.5808,20.7461 5.7958,20.5301 6.0608,20.5301 L24.6598,20.5301 C24.9238,20.5301 25.1398,20.7461 25.1398,21.0111 C25.1398,21.2751 24.9238,21.4911 24.6598,21.4911 L6.0608,21.4911 Z" id="Fill-8" fill="#1FD582"></path>
                    <g id="Group-12" transform="translate(5.000000, 22.660700)">
                        <mask id="mask-2" fill="white">
                            <use xlink:href="#path-1"></use>
                        </mask>
                        <g id="Clip-11"></g>
                        <path d="M1.0608,1.0004 C0.7958,1.0004 0.5808,0.7844 0.5808,0.5204 C0.5808,0.2554 0.7958,0.0394 1.0608,0.0394 L19.6598,0.0394 C19.9238,0.0394 20.1398,0.2554 20.1398,0.5204 C20.1398,0.7844 19.9238,1.0004 19.6598,1.0004 L1.0608,1.0004 Z" id="Fill-10" fill="#1FD582" mask="url(#mask-2)"></path>
                    </g>
                    <path d="M9.9202,8.9199 C9.9202,8.6549 10.1362,8.4409 10.4002,8.4409 C10.6652,8.4409 10.8802,8.6549 10.8802,8.9199 C10.8802,10.1569 11.3822,11.2769 12.1912,12.0879 C13.0032,12.8989 14.1232,13.3999 15.3602,13.3999 C16.5982,13.3999 17.7192,12.8989 18.5272,12.0899 L18.5282,12.0889 L18.5272,12.0879 C19.3382,11.2769 19.8392,10.1569 19.8392,8.9199 C19.8392,8.6549 20.0552,8.4409 20.3192,8.4409 C20.5842,8.4409 20.8002,8.6549 20.8002,8.9199 C20.8002,10.4229 20.1912,11.7829 19.2062,12.7669 L19.2052,12.7659 C18.2202,13.7509 16.8602,14.3599 15.3602,14.3599 C13.8582,14.3599 12.4972,13.7509 11.5132,12.7669 C10.5292,11.7829 9.9202,10.4229 9.9202,8.9199" id="Fill-13" fill="#1FD582"></path>
                    <path d="M6.0598,15.6005 C5.7948,15.6005 5.5798,15.3855 5.5798,15.1215 C5.5798,14.8565 5.7948,14.6405 6.0598,14.6405 C7.2198,14.6405 8.2708,15.1115 9.0308,15.8715 C9.7888,16.6295 10.2598,17.6805 10.2598,18.8405 C10.2598,19.1055 10.0448,19.3215 9.7808,19.3215 C9.5158,19.3215 9.2998,19.1055 9.2998,18.8405 C9.2998,17.9465 8.9368,17.1355 8.3508,16.5495 C7.7648,15.9635 6.9548,15.6005 6.0598,15.6005" id="Fill-15" fill="#1FD582"></path>
                    <path d="M24.6594,14.6406 C24.9244,14.6406 25.1394,14.8566 25.1394,15.1206 C25.1394,15.3856 24.9244,15.6006 24.6594,15.6006 C23.7634,15.6006 22.9534,15.9626 22.3684,16.5476 L22.3664,16.5496 C21.7814,17.1346 21.4204,17.9456 21.4204,18.8406 C21.4204,19.1056 21.2044,19.3216 20.9394,19.3216 C20.6754,19.3216 20.4594,19.1056 20.4594,18.8406 C20.4594,17.6846 20.9304,16.6336 21.6894,15.8726 L21.6914,15.8706 C22.4524,15.1106 23.5034,14.6406 24.6594,14.6406" id="Fill-17" fill="#1FD582"></path>
                </g>
            </g>
        </g>
    </g>
</svg>