<?xml version="1.0" encoding="UTF-8"?>
<svg width="184px" height="88px" viewBox="0 0 184 88" version="1.1" xmlns="http://www.w3.org/2000/svg" xmlns:xlink="http://www.w3.org/1999/xlink">
    <!-- Generator: Sketch 47 (45396) - http://www.bohemiancoding.com/sketch -->
    <title>Group 23 Copy</title>
    <desc>Created with Sketch.</desc>
    <defs></defs>
    <g id="Page-2" stroke="none" stroke-width="1" fill="none" fill-rule="evenodd">
        <g id="Group-23-Copy">
            <g id="Active#2" transform="translate(0.000000, 8.000000)">
                <g id="Group-24-Copy">
                    <rect id="Rectangle-10-Copy-3" stroke="#1FD582" x="0.5" y="0.5" width="175" height="79" rx="6"></rect>
                    <g id="Page-1" transform="translate(73.000000, 15.000000)" fill="#1FD582">
                        <path d="M8.1569,20.0158 C8.3019,20.2348 8.2419,20.5308 8.0229,20.6758 C7.8039,20.8208 7.5079,20.7598 7.3629,20.5408 C7.1899,20.2798 7.0299,20.0078 6.8839,19.7318 C6.7349,19.4488 6.6019,19.1618 6.4869,18.8788 C6.3729,18.5978 6.2709,18.3048 6.1819,18.0048 C6.0939,17.7058 6.0209,17.4068 5.9629,17.1078 C5.9069,16.8138 5.8619,16.5088 5.8329,16.1998 C5.8029,15.8828 5.7869,15.5768 5.7869,15.2858 C5.7869,14.9938 5.8029,14.6868 5.8329,14.3708 C5.8619,14.0608 5.9069,13.7568 5.9629,13.4618 C6.0209,13.1628 6.0939,12.8638 6.1819,12.5648 C6.2709,12.2648 6.3729,11.9728 6.4869,11.6908 C6.6019,11.4078 6.7349,11.1208 6.8839,10.8378 C7.0299,10.5628 7.1899,10.2908 7.3629,10.0288 C7.5379,9.7638 7.7289,9.5028 7.9349,9.2508 C8.1449,8.9938 8.3639,8.7508 8.5849,8.5298 C8.7709,8.3428 9.0749,8.3428 9.2609,8.5298 C9.4469,8.7158 9.4469,9.0188 9.2609,9.2048 C9.0449,9.4208 8.8479,9.6378 8.6749,9.8508 C8.4899,10.0778 8.3169,10.3128 8.1569,10.5538 C8.0009,10.7898 7.8569,11.0358 7.7269,11.2818 C7.5979,11.5268 7.4789,11.7838 7.3709,12.0478 C7.2649,12.3118 7.1729,12.5748 7.0959,12.8328 C7.0179,13.0968 6.9519,13.3688 6.8989,13.6418 C6.8459,13.9178 6.8059,14.1928 6.7809,14.4598 C6.7559,14.7208 6.7419,14.9978 6.7419,15.2858 C6.7419,15.5728 6.7559,15.8488 6.7809,16.1108 C6.8059,16.3768 6.8459,16.6528 6.8989,16.9288 C6.9519,17.2028 7.0179,17.4728 7.0959,17.7368 C7.1729,17.9948 7.2649,18.2578 7.3709,18.5218 C7.4789,18.7868 7.5979,19.0438 7.7269,19.2878 C7.8569,19.5358 8.0009,19.7798 8.1569,20.0158 M20.0719,22.4688 C20.2899,22.3238 20.5869,22.3838 20.7309,22.6028 C20.8759,22.8218 20.8159,23.1188 20.5969,23.2628 C20.3389,23.4328 20.0669,23.5928 19.7849,23.7418 L19.7859,23.7428 C19.5029,23.8908 19.2179,24.0238 18.9339,24.1378 C18.6539,24.2518 18.3609,24.3548 18.0609,24.4438 C17.7629,24.5318 17.4619,24.6058 17.1629,24.6628 C16.8689,24.7188 16.5649,24.7628 16.2559,24.7928 C15.9399,24.8228 15.6339,24.8378 15.3409,24.8378 C14.7329,24.8378 14.1209,24.7798 13.5169,24.6628 C13.2169,24.6048 12.9159,24.5308 12.6179,24.4428 C12.3179,24.3538 12.0269,24.2508 11.7469,24.1378 L11.7239,24.1288 C11.4439,24.0148 11.1669,23.8848 10.8949,23.7428 C10.6249,23.5998 10.3539,23.4388 10.0859,23.2618 L10.0839,23.2618 L10.0839,23.2618 C9.8119,23.0818 9.5499,22.8908 9.3049,22.6908 L9.2779,22.6648 C9.0309,22.4638 8.7989,22.2528 8.5849,22.0398 C8.3989,21.8538 8.3989,21.5498 8.5849,21.3648 C8.7709,21.1778 9.0749,21.1778 9.2609,21.3648 C9.4689,21.5728 9.6779,21.7618 9.8829,21.9308 L9.9099,21.9518 C10.1409,22.1408 10.3769,22.3138 10.6099,22.4678 L10.6089,22.4688 C10.8419,22.6218 11.0859,22.7658 11.3389,22.8998 C11.5819,23.0268 11.8319,23.1438 12.0859,23.2468 L12.1039,23.2538 C12.3659,23.3598 12.6289,23.4528 12.8859,23.5288 C13.1499,23.6068 13.4229,23.6738 13.6969,23.7268 C14.2349,23.8298 14.7869,23.8828 15.3409,23.8828 C15.6289,23.8828 15.9059,23.8698 16.1669,23.8448 C16.4339,23.8198 16.7079,23.7798 16.9839,23.7268 C17.2589,23.6738 17.5299,23.6078 17.7929,23.5298 C18.0509,23.4538 18.3129,23.3608 18.5769,23.2538 C18.8409,23.1468 19.0979,23.0278 19.3429,22.8998 L19.3429,22.8998 L19.3449,22.8998 C19.5859,22.7718 19.8299,22.6278 20.0719,22.4688 M22.5229,10.5538 C22.3779,10.3348 22.4389,10.0388 22.6569,9.8948 C22.8759,9.7488 23.1729,9.8098 23.3179,10.0288 C23.4899,10.2908 23.6509,10.5628 23.7969,10.8378 C23.9449,11.1208 24.0779,11.4078 24.1939,11.6908 C24.3069,11.9728 24.4089,12.2648 24.4979,12.5648 C24.5859,12.8638 24.6599,13.1628 24.7179,13.4618 C24.7739,13.7558 24.8179,14.0598 24.8479,14.3688 C24.8779,14.6848 24.8929,14.9918 24.8929,15.2858 C24.8929,15.8928 24.8349,16.5038 24.7179,17.1078 C24.6599,17.4088 24.5859,17.7088 24.4969,18.0078 C24.4089,18.3068 24.3069,18.5988 24.1939,18.8788 L24.1839,18.9028 C24.0699,19.1818 23.9399,19.4588 23.7969,19.7318 L23.7819,19.7578 C23.6379,20.0308 23.4829,20.2918 23.3179,20.5418 C23.1439,20.8058 22.9519,21.0658 22.7469,21.3178 C22.5429,21.5678 22.3239,21.8088 22.0959,22.0378 C21.9109,22.2248 21.6079,22.2258 21.4229,22.0398 C21.2359,21.8558 21.2349,21.5528 21.4199,21.3678 C21.6299,21.1568 21.8269,20.9388 22.0089,20.7168 C22.1919,20.4918 22.3649,20.2558 22.5239,20.0158 C22.6779,19.7818 22.8199,19.5448 22.9439,19.3098 L22.9539,19.2878 C23.0819,19.0448 23.1989,18.7938 23.3029,18.5388 L23.3089,18.5218 C23.4149,18.2588 23.5079,17.9968 23.5839,17.7398 C23.6609,17.4758 23.7289,17.2028 23.7819,16.9288 C23.8859,16.3898 23.9379,15.8388 23.9379,15.2858 C23.9379,14.9958 23.9249,14.7188 23.8999,14.4568 C23.8749,14.1918 23.8339,13.9168 23.7809,13.6418 C23.7289,13.3688 23.6619,13.0968 23.5839,12.8328 C23.5079,12.5748 23.4159,12.3118 23.3089,12.0478 C23.2009,11.7838 23.0819,11.5268 22.9539,11.2818 C22.8239,11.0358 22.6789,10.7898 22.5229,10.5538 M10.6099,8.1018 C10.3909,8.2468 10.0939,8.1868 9.9499,7.9678 C9.8049,7.7488 9.8649,7.4528 10.0839,7.3078 C10.3459,7.1348 10.6169,6.9738 10.8929,6.8288 C11.1729,6.6808 11.4589,6.5488 11.7459,6.4328 L11.7459,6.4318 C12.0269,6.3188 12.3179,6.2158 12.6179,6.1278 C12.9169,6.0398 13.2169,5.9648 13.5169,5.9078 C13.8109,5.8508 14.1159,5.8068 14.4249,5.7778 C14.7409,5.7468 15.0479,5.7318 15.3409,5.7318 C15.9479,5.7318 16.5589,5.7898 17.1629,5.9078 C17.4629,5.9648 17.7629,6.0398 18.0629,6.1278 C18.3629,6.2158 18.6539,6.3188 18.9339,6.4318 C19.2179,6.5468 19.5029,6.6798 19.7859,6.8288 C20.0629,6.9748 20.3339,7.1348 20.5969,7.3078 C20.8619,7.4828 21.1219,7.6738 21.3739,7.8788 L21.3749,7.8798 L21.3759,7.8788 C21.6259,8.0828 21.8669,8.3008 22.0949,8.5298 C22.2819,8.7158 22.2819,9.0188 22.0949,9.2048 C21.9089,9.3908 21.6059,9.3908 21.4199,9.2048 C21.2089,8.9948 20.9919,8.7988 20.7709,8.6188 L20.7719,8.6168 C20.5469,8.4338 20.3119,8.2608 20.0719,8.1018 C19.8339,7.9458 19.5909,7.8018 19.3429,7.6708 C19.0979,7.5428 18.8409,7.4228 18.5769,7.3168 C18.3139,7.2098 18.0529,7.1178 17.7939,7.0408 C17.5299,6.9638 17.2579,6.8968 16.9839,6.8428 C16.4459,6.7398 15.8939,6.6878 15.3409,6.6878 C15.0529,6.6878 14.7749,6.7008 14.5139,6.7248 C14.2469,6.7498 13.9719,6.7898 13.6969,6.8428 C13.4229,6.8968 13.1509,6.9638 12.8859,7.0408 C12.6289,7.1178 12.3659,7.2098 12.1039,7.3168 L12.1039,7.3158 L12.1019,7.3168 C11.8419,7.4208 11.5859,7.5398 11.3369,7.6708 C11.0899,7.8008 10.8459,7.9458 10.6099,8.1018" id="Fill-1"></path>
                        <path d="M15.3409,1.0129 C11.6739,1.0129 8.0079,2.4109 5.2109,5.2089 L5.2099,5.2089 C2.4129,8.0069 1.0139,11.6729 1.0139,15.3399 C1.0139,19.0059 2.4129,22.6729 5.2099,25.4699 L5.2109,25.4709 C8.0079,28.2679 11.6739,29.6659 15.3409,29.6659 C19.0069,29.6659 22.6739,28.2679 25.4709,25.4709 C28.2679,22.6729 29.6679,19.0069 29.6679,15.3399 L29.6699,15.3399 C29.6699,11.6759 28.2699,8.0079 25.4709,5.2089 C22.6739,2.4109 19.0069,1.0129 15.3409,1.0129 L15.3409,1.0129 Z M4.5349,4.5339 C7.5179,1.5499 11.4299,0.0569 15.3409,0.0569 C19.2509,0.0569 23.1639,1.5499 26.1469,4.5339 C29.1289,7.5159 30.6209,11.4279 30.6209,15.3399 L30.6229,15.3399 C30.6229,19.2509 29.1299,23.1629 26.1469,26.1469 C23.1629,29.1289 19.2509,30.6219 15.3409,30.6219 C11.4299,30.6219 7.5179,29.1289 4.5349,26.1469 L4.5339,26.1459 C1.5509,23.1619 0.0589,19.2499 0.0589,15.3399 C0.0589,11.4289 1.5499,7.5179 4.5339,4.5339 L4.5349,4.5339 Z" id="Fill-3"></path>
                        <path d="M4.5338,5.2092 C4.3478,5.0222 4.3478,4.7192 4.5338,4.5332 C4.7198,4.3472 5.0228,4.3472 5.2098,4.5332 L9.2068,8.5302 C9.3928,8.7172 9.3928,9.0202 9.2068,9.2062 C9.0208,9.3932 8.7168,9.3932 8.5318,9.2062 L4.5338,5.2092 Z" id="Fill-5"></path>
                        <path d="M21.3927,22.0676 C21.2067,21.8806 21.2067,21.5786 21.3927,21.3916 C21.5797,21.2056 21.8827,21.2056 22.0687,21.3916 L26.1467,25.4706 C26.3327,25.6566 26.3327,25.9606 26.1467,26.1466 C25.9607,26.3326 25.6577,26.3326 25.4717,26.1466 L21.3927,22.0676 Z" id="Fill-7"></path>
                        <path d="M25.4713,4.5334 C25.6573,4.3464 25.9613,4.3464 26.1473,4.5334 C26.3333,4.7194 26.3333,5.0224 26.1473,5.2094 L22.1223,9.2334 C21.9363,9.4194 21.6333,9.4194 21.4473,9.2334 C21.2613,9.0474 21.2613,8.7434 21.4473,8.5574 L25.4713,4.5334 Z" id="Fill-9"></path>
                        <path d="M8.6144,21.3898 C8.8014,21.2028 9.1044,21.2028 9.2904,21.3898 C9.4764,21.5768 9.4764,21.8788 9.2904,22.0658 L5.2094,26.1468 C5.0234,26.3318 4.7194,26.3318 4.5334,26.1468 C4.3474,25.9598 4.3474,25.6568 4.5334,25.4708 L8.6144,21.3898 Z" id="Fill-11"></path>
                        <path d="M1.733,5.4885 C1.92,5.6755 1.92,5.9785 1.733,6.1645 C1.547,6.3505 1.244,6.3505 1.058,6.1645 C0.405,5.5115 0,4.6085 0,3.6115 C0,3.1265 0.099,2.6595 0.275,2.2315 C0.459,1.7875 0.727,1.3875 1.058,1.0575 C1.387,0.7275 1.786,0.4595 2.231,0.2755 C2.658,0.0985 3.126,0.0005 3.611,0.0005 C4.097,0.0005 4.563,0.0985 4.99,0.2755 C5.436,0.4595 5.835,0.7275 6.165,1.0575 C6.351,1.2435 6.351,1.5475 6.165,1.7335 C5.979,1.9195 5.675,1.9195 5.489,1.7335 C5.242,1.4865 4.949,1.2875 4.629,1.1555 C4.318,1.0265 3.974,0.9555 3.611,0.9555 C3.248,0.9555 2.903,1.0265 2.593,1.1555 C2.273,1.2885 1.98,1.4865 1.733,1.7335 C1.486,1.9805 1.287,2.2735 1.155,2.5935 C1.027,2.9035 0.955,3.2485 0.955,3.6115 C0.955,4.3435 1.253,5.0095 1.733,5.4885" id="Fill-13"></path>
                        <path d="M29.567,6.1643 C29.381,6.3513 29.077,6.3513 28.891,6.1643 C28.705,5.9783 28.705,5.6753 28.891,5.4883 C29.371,5.0093 29.669,4.3443 29.669,3.6113 C29.669,3.2483 29.597,2.9033 29.469,2.5943 C29.338,2.2733 29.138,1.9803 28.891,1.7333 C28.645,1.4863 28.352,1.2883 28.031,1.1553 C27.721,1.0263 27.377,0.9553 27.014,0.9553 C26.65,0.9553 26.306,1.0263 25.996,1.1553 C25.676,1.2873 25.382,1.4863 25.135,1.7333 C24.949,1.9193 24.646,1.9193 24.46,1.7333 C24.274,1.5473 24.274,1.2433 24.46,1.0583 C24.79,0.7273 25.189,0.4593 25.634,0.2753 C26.062,0.0993 26.528,0.0003 27.014,0.0003 C27.499,0.0003 27.966,0.0993 28.393,0.2753 C28.839,0.4593 29.237,0.7273 29.567,1.0583 C29.897,1.3883 30.166,1.7873 30.349,2.2313 C30.525,2.6593 30.624,3.1263 30.624,3.6113 C30.624,4.6083 30.22,5.5123 29.567,6.1643" id="Fill-15"></path>
                        <path d="M28.8912,25.134 C28.7052,24.948 28.7052,24.645 28.8912,24.459 C29.0772,24.273 29.3812,24.273 29.5672,24.459 C30.2202,25.112 30.6242,26.015 30.6242,27.012 C30.6242,27.496 30.5252,27.964 30.3492,28.391 C30.1652,28.836 29.8972,29.236 29.5672,29.566 C28.9142,30.218 28.0112,30.623 27.0142,30.623 C26.5292,30.623 26.0612,30.525 25.6342,30.348 C25.1922,30.165 24.7932,29.897 24.4622,29.566 C24.2752,29.381 24.2742,29.078 24.4592,28.892 C24.6442,28.706 24.9472,28.705 25.1332,28.89 C25.3792,29.135 25.6732,29.334 25.9962,29.468 C26.3062,29.596 26.6512,29.668 27.0142,29.668 C27.7462,29.668 28.4112,29.369 28.8912,28.89 C29.1382,28.643 29.3372,28.35 29.4692,28.03 C29.5972,27.72 29.6692,27.375 29.6692,27.012 C29.6692,26.279 29.3712,25.614 28.8912,25.134" id="Fill-17"></path>
                        <path d="M1.1173,24.4592 C1.3033,24.2722 1.6073,24.2722 1.7933,24.4592 C1.9793,24.6452 1.9793,24.9482 1.7933,25.1342 C1.3133,25.6142 1.0153,26.2782 1.0153,27.0122 C1.0153,27.3752 1.0873,27.7202 1.2153,28.0292 C1.3463,28.3502 1.5463,28.6432 1.7933,28.8902 C2.2733,29.3692 2.9373,29.6682 3.6703,29.6682 C4.0333,29.6682 4.3783,29.5962 4.6873,29.4682 C5.0113,29.3342 5.3053,29.1352 5.5513,28.8902 C5.7373,28.7052 6.0393,28.7062 6.2243,28.8922 C6.4093,29.0782 6.4083,29.3812 6.2223,29.5652 C5.8903,29.8962 5.4923,30.1652 5.0493,30.3482 C4.6223,30.5242 4.1553,30.6232 3.6703,30.6232 C2.6733,30.6232 1.7703,30.2182 1.1173,29.5652 C0.7873,29.2352 0.5183,28.8362 0.3353,28.3912 C0.1583,27.9642 0.0593,27.4962 0.0593,27.0122 C0.0593,26.0152 0.4643,25.1112 1.1173,24.4592" id="Fill-20"></path>
                        <path d="M15.3409,9.6086 C13.8839,9.6086 12.4269,10.1606 11.3119,11.2626 L11.2889,11.2876 C10.1699,12.4066 9.6109,13.8736 9.6109,15.3396 C9.6109,16.8066 10.1699,18.2746 11.2879,19.3926 C12.4059,20.5096 13.8739,21.0696 15.3409,21.0696 C16.8069,21.0696 18.2739,20.5096 19.3919,19.3916 C20.5109,18.2736 21.0709,16.8066 21.0709,15.3396 L21.0729,15.3396 C21.0729,13.8836 20.5199,12.4266 19.4159,11.3086 L19.3929,11.2876 C18.2749,10.1696 16.8069,9.6086 15.3409,9.6086 L15.3409,9.6086 Z M10.6419,10.5856 C11.9439,9.2976 13.6429,8.6536 15.3409,8.6536 C17.0509,8.6536 18.7639,9.3066 20.0689,10.6116 L20.0969,10.6436 C21.3809,11.9446 22.0249,13.6416 22.0239,15.3396 L22.0269,15.3396 C22.0269,17.0496 21.3729,18.7626 20.0679,20.0676 C18.7629,21.3726 17.0509,22.0256 15.3409,22.0256 C13.6309,22.0256 11.9199,21.3726 10.6149,20.0676 L10.6129,20.0656 C9.3079,18.7596 8.6549,17.0486 8.6549,15.3396 C8.6549,13.6296 9.3079,11.9166 10.6129,10.6116 L10.6419,10.5856 Z" id="Fill-23"></path>
                    </g>
                    <text id="Service" font-family="Exo2-Regular, Exo 2" font-size="13" font-weight="normal" letter-spacing="-0.499999851" fill="#1FD582">
                        <tspan x="68.3324995" y="65">Service</tspan>
                    </text>
                </g>
            </g>
            <circle id="Oval-2" fill="#1FD582" cx="175.5" cy="8.5" r="8.5"></circle>
            <path d="M180.703662,5.29621677 C180.309706,4.90126108 179.671277,4.90126108 179.276822,5.29621677 L175.016299,9.55623892 L172.762552,7.29749229 C172.359098,6.8935376 171.705671,6.8935376 171.302216,7.29749229 C170.899261,7.70244686 170.899261,8.35637351 171.302216,8.76082814 L174.222389,11.686 C174.326377,11.7899884 174.447363,11.8664798 174.576349,11.9169741 C174.948807,12.0884549 175.403256,12.0234622 175.710222,11.7169965 L180.703662,6.72355667 C181.098117,6.32860097 181.098117,5.68917269 180.703662,5.29621677 Z" id="Shape" fill="#FFFFFF"></path>
        </g>
    </g>
</svg>